<?xml version="1.0" encoding="utf-8"?>
<!-- Generator: Adobe Illustrator 23.0.0, SVG Export Plug-In . SVG Version: 6.00 Build 0)  -->
<svg version="1.1" id="Layer_1" xmlns="http://www.w3.org/2000/svg" xmlns:xlink="http://www.w3.org/1999/xlink" x="0px" y="0px"
	 viewBox="0 0 590 709" style="enable-background:new 0 0 590 709;" xml:space="preserve">
<style type="text/css">
	.st0{fill:#46CAAD;}
	.st1{fill:#1C1C1C;}
	.st2{fill:#FFFFFF;}
</style>
<title>Expenses</title>
<g>
	<g>
		<rect x="29.1" y="33.1" class="st0" width="517.7" height="644.4"/>
		<image style="overflow:visible;opacity:0.57;enable-background:new    ;" width="590" height="709" xlink:href="4229C58.png" >
		</image>
		<path class="st1" d="M567.1,686.1H8.9V8h558.3V686.1z M49.4,652.4h477.2V41.7H49.4V652.4z"/>
		<path class="st2" d="M420.2,211.1H155.8c-4.7,0-8.5-3.1-8.5-7s3.8-7,8.5-7h264.4c4.7,0,8.5,3.1,8.5,7S424.9,211.1,420.2,211.1z"/>
		<ellipse class="st2" cx="110" cy="204.1" rx="9.1" ry="7.5"/>
		<path class="st2" d="M420.2,362H155.8c-4.7,0-8.5-3.1-8.5-7s3.8-7,8.5-7h264.4c4.7,0,8.5,3.1,8.5,7S424.9,362,420.2,362z"/>
		<ellipse class="st2" cx="110" cy="355" rx="9.1" ry="7.5"/>
		<path class="st2" d="M420.2,512.8H155.8c-4.7,0-8.5-3.1-8.5-7s3.8-7,8.5-7h264.4c4.7,0,8.5,3.1,8.5,7S424.9,512.8,420.2,512.8z"/>
		<ellipse class="st2" cx="110" cy="505.8" rx="9.1" ry="7.5"/>
		
			<image style="overflow:visible;opacity:0.57;enable-background:new    ;" width="64" height="69" xlink:href="4229C59.png"  transform="matrix(1 0 0 1 380 408)">
		</image>
		<path class="st1" d="M390.8,453.8c18.1,4.3,27.9-3.7,31-19.9l-33.6-17.7L390.8,453.8z"/>
		
			<image style="overflow:visible;opacity:0.57;enable-background:new    ;" width="226" height="306" xlink:href="4229C5F.png"  transform="matrix(1 0 0 1 382 425)">
		</image>
		
			<rect x="469.9" y="419.6" transform="matrix(0.8411 -0.5408 0.5408 0.8411 -231.408 354.8838)" class="st1" width="36.9" height="303.4"/>
	</g>
</g>
</svg>
