<?xml version="1.0" encoding="utf-8"?>
<!-- Generator: Adobe Illustrator 23.0.0, SVG Export Plug-In . SVG Version: 6.00 Build 0)  -->
<svg version="1.1" id="Layer_1" xmlns="http://www.w3.org/2000/svg" xmlns:xlink="http://www.w3.org/1999/xlink" x="0px" y="0px"
	 viewBox="0 0 1920 1080" style="enable-background:new 0 0 1920 1080;" xml:space="preserve">
<style type="text/css">
	.st0{fill:#E5E023;stroke:#302A24;stroke-miterlimit:10;}
	.st1{fill:none;stroke:#302A24;stroke-miterlimit:10;}
	.st2{fill:#DBD612;stroke:#302A24;stroke-miterlimit:10;}
	.st3{fill:url(#SVGID_1_);}
	.st4{opacity:0.25;}
	.st5{opacity:0.47;}
	.st6{fill:#2D2C00;}
	.st7{fill:url(#SVGID_2_);}
	.st8{fill:url(#SVGID_3_);}
</style>
<ellipse transform="matrix(0.1209 -0.9927 0.9927 0.1209 82.2444 1394.3693)" class="st0" cx="828.3" cy="650.8" rx="256.7" ry="615.1"/>
<g>
	<path class="st1" d="M1357.8,774c-0.9,18.6,8.9,35.2,12.5,35.4"/>
	<path class="st1" d="M1374.3,762.5c-0.9,18.6,8.9,35.2,12.5,35.4"/>
	<path class="st1" d="M1389,747.3c-0.9,18.6,8.9,35.2,12.5,35.4"/>
	<path class="st1" d="M1403,735.1c-0.8,17.5,6,32.9,8.5,33.1"/>
	<path class="st1" d="M1414.9,721c-0.8,17.5,5.6,31.2,8.1,31.3"/>
	<path class="st1" d="M1338,785.2c-1.1,23.3,7.1,39.3,14.2,39.6"/>
	<path class="st1" d="M1313.1,795.4c-1.3,18.6,6.2,42.4,16.8,43.3"/>
	<path class="st1" d="M1236.4,821.6c-1.3,27.9,6.2,50.9,16.8,51.4"/>
	<path class="st1" d="M1262.2,814.3c-1.3,27.9,6.2,50.9,16.8,51.4"/>
	<path class="st1" d="M1291.4,804c-1.3,27.9,4.8,46.7,15.4,47.2"/>
	<path class="st1" d="M1197.9,828.2c-1.5,32.6,5.8,59.3,16.4,59.8"/>
	<path class="st1" d="M1165.7,835.2c-1.5,32.6,5.8,59.3,16.4,59.8"/>
	<path class="st1" d="M1127.1,841.8c-1.5,32.6,5.8,59.3,16.4,59.8"/>
	<path class="st1" d="M1094.9,848.8c-1.5,32.6,5.8,59.3,16.4,59.8"/>
	<path class="st1" d="M1056.8,847c-1.7,37.2,1.9,67.6,16,68.2"/>
	<path class="st1" d="M1021.2,849c-4,32.3,1.2,59.9,11.7,61.8"/>
	<path class="st1" d="M988.7,851.6c-4,32.3,1.2,59.9,11.7,61.8"/>
	<path class="st1" d="M954.6,850.7c-4.5,36.9-0.5,62,13.4,64.5"/>
	<path class="st1" d="M927.5,849.5c-4.5,36.9-0.5,62,13.4,64.5"/>
	<path class="st1" d="M892.2,847.8c-4.5,36.9-0.5,62,13.4,64.5"/>
</g>
<g>
	<path class="st1" d="M288.1,658c-2.2,18.5-14.5,32.7-18,32.1"/>
	<path class="st1" d="M273.9,643.1c-2.2,18.5-14.5,32.7-18,32.1"/>
	<path class="st1" d="M261.8,625c-2.2,18.5-14.5,32.7-18,32.1"/>
	<path class="st1" d="M250.1,610c-2,17.3-11.3,31.1-13.7,30.6"/>
	<path class="st1" d="M240.7,593.6c-2,17.3-10.5,29.5-13,29"/>
	<path class="st1" d="M305.8,673.2c-2.7,23.1-13.4,37-20.3,35.8"/>
	<path class="st1" d="M328.6,688.6c-1.8,18.5-13,40.3-23.5,38.9"/>
	<path class="st1" d="M399.7,730.9c-3.3,27.7-14.4,48.7-24.8,46.9"/>
	<path class="st1" d="M375.5,718.2c-3.3,27.7-14.4,48.7-24.8,46.9"/>
	<path class="st1" d="M348.5,701.7c-3.3,27.7-12.3,44.8-22.8,43"/>
	<path class="st1" d="M436.5,745.7c-3.8,32.3-15.3,57-25.8,55.2"/>
	<path class="st1" d="M467,759.5c-3.8,32.3-15.3,57-25.8,55.2"/>
	<path class="st1" d="M503.8,774.3c-3.8,32.3-15.3,57-25.8,55.2"/>
	<path class="st1" d="M534.3,788.1c-3.8,32.3-15.1,52.5-25.6,50.7"/>
	<path class="st1" d="M572,794.6c-4.4,36.9-10.7,60.9-24.6,58.5"/>
	<path class="st1" d="M606.7,804.2c-1.3,32.6-11,58.6-21.5,58.2"/>
	<path class="st1" d="M638.1,813.8c-1.3,32.6-11,58.6-21.5,58.2"/>
	<path class="st1" d="M671.8,820.3c-1.5,37.2-9.6,61-23.6,60.5"/>
	<path class="st1" d="M698.6,824.9c-1.5,37.2-9.6,61-23.6,60.5"/>
	<path class="st1" d="M733.5,830.9c-1.5,37.2-9.6,61-23.6,60.5"/>
	<path class="st1" d="M769.3,841c-1.5,37.2-9.6,61-23.6,60.5"/>
	<path class="st1" d="M808.8,842.8c-1.5,37.2-9.6,61-23.6,60.5"/>
	<path class="st1" d="M839.9,850.6c-1.5,37.2-5,55-19.1,54.5"/>
	<path class="st1" d="M867.8,851.9c-1.5,37.2-5,55-19.1,54.5"/>
</g>
<ellipse transform="matrix(0.1344 -0.9909 0.9909 0.1344 137.0181 1332.6008)" class="st2" cx="831.2" cy="587.9" rx="256.6" ry="615.4"/>
<linearGradient id="SVGID_1_" gradientUnits="userSpaceOnUse" x1="329.7464" y1="586.5854" x2="1338.2004" y2="586.5854" gradientTransform="matrix(0.9989 4.608702e-02 -4.608702e-02 0.9989 25.194 -36.5218)">
	<stop  offset="1.274966e-07" style="stop-color:#D9E021"/>
	<stop  offset="1.098442e-02" style="stop-color:#DBE120"/>
	<stop  offset="0.1677" style="stop-color:#EFF20E"/>
	<stop  offset="0.3241" style="stop-color:#FBFC04"/>
	<stop  offset="0.4791" style="stop-color:#FFFF00"/>
	<stop  offset="0.6771" style="stop-color:#FCFD03"/>
	<stop  offset="0.8186" style="stop-color:#F3F50B"/>
	<stop  offset="0.9422" style="stop-color:#E3E818"/>
	<stop  offset="1" style="stop-color:#D9E021"/>
</linearGradient>
<path class="st3" d="M1332.9,652.2c10.8-116.1-205.1-238.9-482.2-274.4s-510.4,29.8-521.2,145.9S534.6,762.5,811.7,798
	C1088.8,833.5,1322.2,768.2,1332.9,652.2z"/>
<g class="st4">
	<g>
		<path d="M1234.7,804.5c-0.5-0.5-1-1-1.2-1.6c-0.9-2-0.2-4.5,2.1-7.5c2.3-3,5.5-5.5,9.3-7.3c4.1-1.9,7.7-2.5,11-1.8
			c3.2,0.7,5.5,2.6,7,5.7c2,4.2,1.9,8.7-0.3,13.6c-1.1,2.6-2.9,5.1-5.3,7.5s-4.9,4.3-7.6,5.5c-2.6,1.2-4.3,0.8-5.2-1.1
			c-0.3-0.7-0.8-2.2-1.3-4.6l-2.9-11.9c-0.2-1-0.5-1.7-0.7-2.2c-0.2-0.4-0.5-0.7-0.9-0.9c1.2-1.3,2.1-2,2.7-2.3
			c0.7-0.3,1.2-0.1,1.6,0.7c0.1,0.2,0.4,1.2,0.8,3.2l2.5,10c0.6,2.5,1.1,4.1,1.4,4.7c0.3,0.7,0.8,1,1.3,1s1.5-0.3,2.7-0.8
			c4.1-1.9,6.9-4.7,8.5-8.5c1.6-3.7,1.5-7.4-0.2-11.1c-1.3-2.8-3.4-4.6-6.2-5.3c-2.8-0.8-5.8-0.4-9.2,1.2c-2.7,1.3-4.9,3.1-6.6,5.5
			C1236.2,798.7,1235.1,801.4,1234.7,804.5z"/>
		<path d="M1282.7,788.8c-0.1,3.6-0.6,7-1.8,10c-1.1,3.1-2.5,4.9-4,5.7c-1.2,0.6-2.4,0.5-3.6-0.2c-1.2-0.7-2.2-1.9-3-3.7
			c-1.6-3.5-2-7-1.1-10.7c0.9-3.6,2.7-6.1,5.5-7.4c1.7-0.8,3.8-1.1,6.2-1c-0.2-1.2,0.7-2.2,2.8-3.2c0.1-0.1,0.4-0.2,0.7-0.3
			c-0.2,1.3,0,2.8,0.4,4.7l0.4,1.6c0.4,1.7,1.1,3.7,2.1,5.8c1.1,2.4,2.3,3.4,3.4,2.8c1.2-0.6,2.4-2.3,3.6-5.3c1.2-3,2-6.5,2.6-10.6
			l1.7,0.3c-0.3,4.6-1.3,8.8-2.8,12.5c-1.5,3.7-3.2,6-5.1,6.9c-2.4,1.1-4.6-0.3-6.4-4.3C1283.8,791.4,1283.3,790.2,1282.7,788.8z
			 M1281.6,784.4c-3.1-0.4-5.4-0.3-6.9,0.5c-1.7,0.8-2.7,2.5-3,5.1c-0.3,2.6,0.2,5.3,1.6,8.1c1.1,2.2,2.3,3,3.8,2.3
			c1.6-0.8,3-5.7,4.3-14.8C1281.4,785.6,1281.5,785.1,1281.6,784.4z"/>
		<path d="M1303.8,791.8c-0.2-1.1-0.6-2.3-1.2-3.6c-1.5-3.1-3.3-6.1-5.5-8.7c-2.2-2.7-4.2-4.4-5.9-5.1c0.8-0.9,1.6-1.6,2.2-1.9
			c1.2-0.6,2.9,0.4,5,2.8c2.2,2.4,4.6,6.1,7.2,10.9c0.7-2.9,1-5.8,1-8.7c0-2.9-0.3-5.1-0.9-6.4c0-0.1-0.1-0.3-0.3-0.5
			c0.8-0.8,1.5-1.3,2-1.6c1-0.5,1.6-0.3,2,0.4c0.1,0.2,0.5,1.5,1.1,3.9c0.2,0.6,0.3,1.1,0.5,1.5l0.4,1.2c0.3,0.9,0.8,1.9,1.3,3
			c1.5,3.1,2.9,4.3,4.3,3.6c1.3-0.6,1.9-2.3,1.9-5c-0.1-2.7-0.8-5.6-2.2-8.5c-1-2.1-2.1-3.1-3.4-3c0.6-1.3,1.4-2.1,2.3-2.5
			c1.3-0.6,2.5,0.1,3.5,2.2c1.4,3,2,7,1.7,12c-0.3,4.4-1.5,7.1-3.8,8.1c-2.5,1.2-4.8-0.3-6.8-4.6l-1.7-3.9c0.1,3.4-0.2,6.5-0.7,9.1
			C1307.4,788.9,1306,790.7,1303.8,791.8z"/>
		<path d="M1329.3,770.9c1.5,3.3,3.7,4.2,6.5,2.9c2.4-1.1,4.5-3.5,6.4-7.1c1.8-3.6,3-7.9,3.6-12.7l1.8,0.1
			c-0.3,5.1-1.6,9.8-3.8,14.1c-2.3,4.3-5,7.2-8.1,8.7c-2,0.9-3.9,1-5.7,0.3c-1.8-0.7-3.2-2.2-4.2-4.5c-1.5-3.2-1.7-6.5-0.7-9.8
			c1-3.3,3.1-5.6,6.1-7c1.4-0.7,2.8-0.9,4-0.5c1.2,0.3,2.1,1.1,2.7,2.3c0.9,2,0.6,4.3-1.1,7C1334.8,767.3,1332.4,769.4,1329.3,770.9
			z M1328.6,769.2c2.3-1.2,4-2.8,5.1-4.8c1.1-2,1.3-3.8,0.5-5.4c-0.7-1.4-1.6-1.8-2.9-1.2c-1.5,0.7-2.5,2.2-3.1,4.4
			C1327.7,764.4,1327.9,766.8,1328.6,769.2z"/>
		<path d="M1352,761.4c0.1-10.2,1.7-16.1,4.8-17.6c2.5-1.2,4.9,0.7,7.2,5.6l1,2c1.1,2.3,2,3.9,2.6,4.7c0.7,0.8,1.3,1,1.9,0.7
			c1-0.5,1.7-1.7,2.2-3.8c0.5-2.1,1.1-6.1,1.7-12l1.8,0.2c-0.3,5.8-0.9,10.2-1.8,13.4s-2.1,5.1-3.7,5.8c-1.4,0.7-2.7,0.5-4-0.6
			c-1.2-1.1-2.6-3.3-4.2-6.7l-0.7-1.4c-0.9-1.8-1.6-3.1-2.2-3.7c-0.6-0.6-1.2-0.8-1.7-0.5c-1.5,0.7-2.5,4.7-3,12.1
			c-0.1,1.8-0.2,3-0.3,3.5c-0.2,1.9-0.1,3.2,0.2,3.8c0.1,0.3,0.3,0.5,0.6,0.7c-0.5,0.6-1,1-1.5,1.2c-1.1,0.5-2,0.2-2.6-1.1
			c-0.2-0.4-0.8-2-1.8-5l-1.3-3.8c-0.6-1.6-1-2.8-1.4-3.7c-0.6-1.2-1.3-2-2.1-2.4c0.2-0.2,0.5-0.5,1-1c0.6-0.6,1.1-1,1.5-1.1
			c0.9-0.4,1.6,0,2.2,1.3c0.3,0.7,0.8,1.9,1.4,3.6c0.1,0.4,0.3,0.7,0.4,1.1L1352,761.4z"/>
	</g>
</g>
<g class="st5">
	<path class="st6" d="M835.5,497.8l66.8-19.4c19.7-5.4,36.1-8.7,49-10.1c12.9-1.4,24.9-1.4,36,0c27.3,3.4,47.6,13.8,60.9,31.2
		c13.3,17.4,18.7,36.6,16.1,57.4c-2.5,19.9-11.5,35.9-27,48.2c-15.6,12.2-36.3,16.7-62.2,13.5c-15-1.9-29.9-6.8-44.5-14.7
		c-14.7-8-34.3-22.9-58.9-44.7c-11,2.9-22.9,6.6-35.7,10.9c-39.4,13.4-68.1,21.8-86.3,25s-34.9,3.9-50.4,2
		c-31.6-3.9-54.8-15.8-69.6-35.7c-14.8-19.9-20.6-43-17.3-69.5c2.9-23.9,12.7-42.6,29.3-56.1c16.6-13.5,39-18.5,67.3-15
		c18,2.2,36.2,8.7,54.8,19.4C782.3,450.8,806.2,470,835.5,497.8z M825.3,499.7c-13.9-12.6-27.1-21.9-39.8-27.9
		c-23.6-11.7-49-19.2-76.2-22.5c-30.6-3.8-53.9-0.6-70,9.5c-11.3,7.4-17.8,17.3-19.3,29.7c-1.3,10.5,1.4,19.8,8,27.7
		c6.6,7.9,18.4,13,35.4,15c17,2.1,37.5,1,61.5-3.3C749,523.7,782.4,514.3,825.3,499.7z M880.6,554.8c27,22.4,60.8,36,101.4,41
		c26.3,3.2,45,1.1,56-6.3c11-7.4,17.3-17.7,18.9-30.8c1.2-9.8-0.6-18.1-5.5-24.9s-12.9-10.9-24-12.2
		C1000.4,518.3,951.6,529.4,880.6,554.8z"/>
</g>
<g class="st5">
	<path class="st6" d="M700.1,667.2c-0.7,5.6-3.4,9.7-8,12.4c-2.9,1.7-5.8,2.8-8.8,3.3c-2.1,0.4-4.7,0.4-7.8,0.1l-14-1.7l-2.6,21
		l15.3,1.9c2,0.2,2.9,1.1,2.7,2.6c-0.2,1.5-1.3,2.1-3.2,1.9l-25.7-3.1c-2-0.2-2.9-1.1-2.7-2.6c0.2-1.5,1.3-2.1,3.2-1.9l6,0.7
		l6.5-53.2l-6-0.7c-2-0.2-2.9-1.1-2.7-2.6c0.2-1.5,1.3-2.1,3.2-1.9l25.9,3.2c5.6,0.7,10.1,2.9,13.7,6.6
		C699.1,657.1,700.7,661.8,700.1,667.2z M695.6,666.6c0.5-4-0.8-7.5-3.9-10.6c-2.8-2.8-6.3-4.5-10.4-5l-15.9-1.9l-3.4,27.7l14.2,1.7
		c3,0.4,6,0.1,9-0.9c3.2-1,5.8-2.6,7.5-4.8C694.4,670.9,695.4,668.8,695.6,666.6z"/>
	<path class="st6" d="M761.1,696.1c-0.8,6.9-4,12.4-9.4,16.6s-11.6,5.9-18.5,5s-12.5-3.9-16.8-9.3c-4.3-5.4-6-11.5-5.2-18.4
		c0.8-6.9,4-12.4,9.4-16.6c5.5-4.2,11.6-5.9,18.5-5s12.5,4,16.7,9.3C760.2,683,761.9,689.2,761.1,696.1z M756.6,695.5
		c0.7-5.7-0.7-10.7-4.2-15.1c-3.5-4.4-8.1-6.9-13.7-7.6s-10.7,0.7-15.2,4.1c-4.5,3.4-7,8-7.7,13.6c-0.7,5.6,0.7,10.6,4.2,15
		c3.5,4.4,8.1,6.9,13.7,7.6c5.7,0.7,10.7-0.7,15.2-4.1C753.3,705.7,755.9,701.2,756.6,695.5z"/>
	<path class="st6" d="M825.3,724.9c-0.2,1.5-1.3,2.1-3.2,1.9l-8.2-1l0.8-6.5c-6.8,4.8-13.7,6.7-20.8,5.9c-4.4-0.5-7.5-2.1-9.5-4.8
		c-2.6-3.5-3.6-7.3-3.1-11.4l3.5-28.8l-6-0.7c-2-0.2-2.9-1.1-2.7-2.6c0.2-1.5,1.3-2.1,3.2-1.9l10.5,1.3l-4.1,33.3
		c-0.4,2.9,0.3,5.4,1.8,7.5c1.6,2.1,3.8,3.3,6.6,3.7c7.3,0.9,14.3-1.6,21.2-7.5l3.5-28.8l-8.2-1c-2-0.2-2.9-1.1-2.7-2.6
		c0.2-1.5,1.3-2.1,3.2-1.9l12.7,1.6l-5.1,41.5l3.8,0.5C824.6,722.5,825.5,723.4,825.3,724.9z"/>
	<path class="st6" d="M890.5,732.9c-0.2,1.5-1.3,2.1-3.2,1.9l-11.9-1.5c-2-0.2-2.9-1.1-2.8-2.6s1.3-2.1,3.3-1.9l3.7,0.5l3.3-27.3
		c0.4-3.5-0.5-6.4-2.8-8.8c-2.1-2.2-5-3.6-8.5-4c-3.6-0.4-6.9,0.2-10,2c-1.8,1-4.5,3.2-8.2,6.6l-3.4,28l5,0.6c2,0.2,2.9,1.1,2.7,2.6
		c-0.2,1.5-1.3,2.1-3.2,1.9l-14.5-1.8c-2-0.2-2.9-1.1-2.7-2.6c0.2-1.5,1.3-2.1,3.2-1.9l5,0.6l4.5-37l-3.8-0.5
		c-2-0.2-2.9-1.1-2.7-2.6c0.2-1.5,1.3-2.1,3.2-1.9l8.2,1l-0.8,6.7c6.2-4.9,12.1-7,18-6.3c6.5,0.8,11.1,3.9,13.8,9.2
		c1.3,2.7,1.8,5.3,1.5,7.9l-3.4,28.1l3.8,0.5C889.8,730.5,890.7,731.4,890.5,732.9z"/>
	<path class="st6" d="M960.2,741.4c-0.2,1.5-1.3,2.1-3.3,1.9l-10.5-1.3l1.1-8.9c-6,6.4-13,9.2-21,8.2c-4.2-0.5-8.1-2.1-11.4-4.8
		c-3.4-2.7-5.8-6-7.4-10.1c-1.7-4.2-2.3-8.4-1.7-12.7c0.5-4.3,2.1-8.3,4.7-11.9c2.6-3.6,5.9-6.3,9.9-8c3.9-1.7,7.9-2.3,12-1.8
		c7.8,1,13.9,5.3,18.3,13l3.1-25.2l-5.9-0.7c-2-0.2-2.9-1.1-2.7-2.7c0.2-1.5,1.3-2.1,3.3-1.9l10.5,1.3l-7.6,62.2l5.9,0.7
		C959.4,739,960.3,739.9,960.2,741.4z M949.2,719.1c0.7-5.5-0.6-10.5-3.8-14.9c-3.2-4.4-7.6-7-13.1-7.6c-5.5-0.7-10.3,0.7-14.6,4.3
		c-4.2,3.5-6.7,8-7.3,13.5c-0.7,5.5,0.6,10.5,3.9,14.9c3.2,4.4,7.6,7,13.1,7.6c5.5,0.7,10.3-0.8,14.6-4.3
		C946.1,729.1,948.5,724.6,949.2,719.1z"/>
	<path class="st6" d="M1017.5,737.7c-0.6,5-3.5,8.4-8.8,10.5c-4.3,1.6-9.1,2.1-14.5,1.5c-7-0.9-12.6-3.4-16.6-7.5
		c-0.2,1.7-0.7,2.8-1.4,3.1c-0.4,0.2-0.9,0.3-1.3,0.2c-1.5-0.2-2.1-1.3-1.9-3.2l1.1-9.2c0.2-2,1.1-2.9,2.6-2.7
		c1.5,0.2,2.2,1.1,2,2.7c-0.4,3.6,1.6,6.6,6.2,9.2c2.6,1.5,5.8,2.4,9.7,2.9c4,0.5,7.7,0.2,11-0.8c4.5-1.3,7-3.7,7.4-7.2
		c0.7-5.5-4.6-9.5-15.7-12c-4.4-1-7.5-1.9-9.4-2.7c-3.6-1.4-6-3.4-7.4-5.9c-1.1-2-1.5-4.1-1.3-6.2c0.5-4.2,3.2-7.2,7.9-8.9
		c3.8-1.4,8-1.8,12.6-1.2c6.2,0.8,11,2.9,14.5,6.3c0.2-1.9,1.1-2.8,2.6-2.6c1.5,0.2,2.2,1.3,1.9,3.3l-0.9,7.6
		c-0.2,2-1.1,2.9-2.6,2.7c-1.3-0.2-2-1.1-1.9-2.8c0-2.1-0.8-4-2.6-5.7c-2.6-2.3-6.3-3.8-11.2-4.4c-5-0.6-9-0.1-12,1.6
		c-2.3,1.3-3.5,2.8-3.8,4.7c-0.3,2.1,0.8,4,3.1,5.8c1.6,1.2,4.7,2.4,9.4,3.5c6.2,1.5,10.4,2.8,12.6,3.9
		C1015.3,727.4,1018.2,731.9,1017.5,737.7z"/>
</g>
<ellipse transform="matrix(0.2289 -0.9735 0.9735 0.2289 166.7998 1238.1163)" class="st0" cx="864.9" cy="513.8" rx="256.7" ry="615.1"/>
<g>
	<path class="st1" d="M1377.7,694.3c-2.9,18.4,5,36,8.5,36.5"/>
	<path class="st1" d="M1395.3,684.6c-2.9,18.4,5,36,8.5,36.5"/>
	<path class="st1" d="M1411.6,671.1c-2.9,18.4,5,36,8.5,36.5"/>
	<path class="st1" d="M1426.9,660.6c-2.7,17.3,2.4,33.4,4.8,33.8"/>
	<path class="st1" d="M1440.2,647.9c-2.7,17.3,2.1,31.6,4.6,32"/>
	<path class="st1" d="M1356.8,703.2c-3.6,23,2.8,39.8,9.7,40.9"/>
	<path class="st1" d="M1330.9,710.7c-3.3,18.3,1.6,42.8,11.9,44.9"/>
	<path class="st1" d="M1251.8,728.3c-4.3,27.6,0.6,51.3,11,52.9"/>
	<path class="st1" d="M1278.3,723.9c-4.3,27.6,0.6,51.3,11,52.9"/>
	<path class="st1" d="M1308.4,716.8c-4.3,27.6-0.3,47,10.1,48.6"/>
	<path class="st1" d="M1212.7,730.6c-5.1,32.2-0.7,59.6,9.7,61.2"/>
	<path class="st1" d="M1180,734c-5.1,32.2-0.7,59.6,9.7,61.2"/>
	<path class="st1" d="M1140.9,736.4c-5.1,32.2-0.7,59.6,9.7,61.2"/>
	<path class="st1" d="M1108.2,739.8c-5.1,32.2-0.7,59.6,9.7,61.2"/>
	<path class="st1" d="M1070.4,733.9c-5.8,36.8-5.5,67.4,8.4,69.5"/>
	<path class="st1" d="M1034.9,731.9c-7.5,31.7-5.3,59.7,4.8,62.7"/>
	<path class="st1" d="M1002.3,731c-7.5,31.7-5.3,59.7,4.8,62.7"/>
	<path class="st1" d="M968.5,726.4c-8.6,36.2-7.3,61.5,6.2,65.6"/>
	<path class="st1" d="M941.6,722.2c-8.6,36.2-7.3,61.5,6.2,65.6"/>
	<path class="st1" d="M906.8,716.7c-8.6,36.2-7.3,61.5,6.2,65.6"/>
</g>
<g>
	<path class="st1" d="M327.1,461.8c-4.2,18.1-18,30.9-21.4,29.9"/>
	<path class="st1" d="M314.6,445.4c-4.2,18.1-18,30.9-21.4,29.9"/>
	<path class="st1" d="M304.6,426.1c-4.2,18.1-18,30.9-21.4,29.9"/>
	<path class="st1" d="M294.5,409.9c-3.9,17-14.6,29.6-17,28.9"/>
	<path class="st1" d="M287,392.6c-3.9,17-13.7,28.1-16.1,27.4"/>
	<path class="st1" d="M343,478.8c-5.2,22.6-17.4,35.3-24.1,33.4"/>
	<path class="st1" d="M364,496.7c-3.8,18.2-17.4,38.6-27.6,36.1"/>
	<path class="st1" d="M430,546.5c-6.3,27.2-19.6,46.8-29.8,43.9"/>
	<path class="st1" d="M407.4,531.2c-6.3,27.2-19.6,46.8-29.8,43.9"/>
	<path class="st1" d="M382.4,511.9c-6.3,27.2-17.2,43.2-27.4,40.3"/>
	<path class="st1" d="M465,565.2c-7.3,31.7-21.5,55-31.7,52"/>
	<path class="st1" d="M493.8,582.3c-7.3,31.7-21.5,55-31.7,52"/>
	<path class="st1" d="M528.7,601.1c-7.3,31.7-21.5,55-31.7,52"/>
	<path class="st1" d="M557.5,618.1c-7.3,31.7-20.8,50.6-31,47.6"/>
	<path class="st1" d="M594.4,628.7c-8.4,36.2-17.3,59.4-30.9,55.5"/>
	<path class="st1" d="M627.7,642c-4.9,32.2-17.3,57.1-27.8,55.5"/>
	<path class="st1" d="M658,655c-4.9,32.2-17.3,57.1-27.8,55.5"/>
	<path class="st1" d="M690.7,665.2c-5.6,36.8-16.2,59.6-30.1,57.5"/>
	<path class="st1" d="M716.9,672.7c-5.6,36.8-16.2,59.6-30.1,57.5"/>
	<path class="st1" d="M750.9,682.5c-5.6,36.8-16.2,59.6-30.1,57.5"/>
	<path class="st1" d="M785.3,696.4c-5.6,36.8-16.2,59.6-30.1,57.5"/>
	<path class="st1" d="M824.5,702.6c-5.6,36.8-16.2,59.6-30.1,57.5"/>
	<path class="st1" d="M854.5,713.7c-5.6,36.8-11,54.1-25,52.1"/>
	<path class="st1" d="M882.1,718.1c-5.6,36.8-11,54.1-25,52.1"/>
</g>
<ellipse transform="matrix(0.2421 -0.9703 0.9703 0.2421 224.7497 1190.9099)" class="st2" cx="874.7" cy="451.6" rx="256.6" ry="615.4"/>
<linearGradient id="SVGID_2_" gradientUnits="userSpaceOnUse" x1="359.64" y1="441.9935" x2="1368.0941" y2="441.9935" gradientTransform="matrix(0.9879 0.1552 -0.1552 0.9879 89.8799 -119.1413)">
	<stop  offset="1.274966e-07" style="stop-color:#D9E021"/>
	<stop  offset="1.098442e-02" style="stop-color:#DBE120"/>
	<stop  offset="0.1677" style="stop-color:#EFF20E"/>
	<stop  offset="0.3241" style="stop-color:#FBFC04"/>
	<stop  offset="0.4791" style="stop-color:#FFFF00"/>
	<stop  offset="0.6771" style="stop-color:#FCFD03"/>
	<stop  offset="0.8186" style="stop-color:#F3F50B"/>
	<stop  offset="0.9422" style="stop-color:#E3E818"/>
	<stop  offset="1" style="stop-color:#D9E021"/>
</linearGradient>
<path class="st7" d="M1366.3,570.4c23.4-114.2-177.7-259.9-449.2-325.6S406.5,218.6,383,332.7c-23.4,114.2,177.7,259.9,449.2,325.6
	S1342.9,684.6,1366.3,570.4z"/>
<g class="st4">
	<g>
		<path d="M1251.9,711.1c-0.5-0.5-0.8-1.1-1.1-1.7c-0.7-2.1,0.3-4.5,2.9-7.3c2.7-2.8,6-4.8,10.1-6.2c4.3-1.5,8-1.7,11.1-0.6
			c3.1,1,5.2,3.2,6.3,6.5c1.5,4.4,0.9,8.9-1.8,13.5c-1.4,2.4-3.5,4.7-6.1,6.9c-2.7,2.2-5.4,3.7-8.1,4.7c-2.7,0.9-4.3,0.4-5-1.6
			c-0.2-0.7-0.5-2.3-0.8-4.7l-1.6-12.2c-0.1-1-0.3-1.8-0.4-2.2c-0.1-0.4-0.4-0.7-0.8-1c1.4-1.1,2.3-1.8,3-2c0.7-0.2,1.2,0,1.5,0.9
			c0.1,0.2,0.2,1.3,0.5,3.2l1.3,10.2c0.4,2.6,0.6,4.2,0.8,4.8c0.2,0.7,0.6,1.1,1.2,1.2c0.6,0.1,1.5-0.1,2.8-0.5
			c4.2-1.5,7.4-4,9.4-7.5c2-3.5,2.3-7.2,1-11c-1-2.9-2.9-4.9-5.5-6c-2.7-1.1-5.8-1-9.2,0.2c-2.8,1-5.2,2.5-7.2,4.7
			C1254.1,705.5,1252.7,708.1,1251.9,711.1z"/>
		<path d="M1301.4,700.7c-0.4,3.6-1.4,6.8-2.9,9.8c-1.5,2.9-3,4.6-4.6,5.2c-1.2,0.4-2.4,0.2-3.5-0.6c-1.1-0.8-2-2.2-2.6-4
			c-1.2-3.6-1.2-7.2,0-10.7c1.3-3.5,3.4-5.8,6.3-6.8c1.8-0.6,3.9-0.7,6.3-0.3c-0.1-1.2,1-2.1,3.2-2.9c0.1,0,0.4-0.1,0.7-0.2
			c-0.3,1.2-0.4,2.8-0.1,4.7l0.2,1.6c0.2,1.8,0.7,3.8,1.5,6c0.9,2.5,1.9,3.6,3.1,3.2c1.3-0.4,2.6-2.1,4.1-4.9
			c1.5-2.8,2.7-6.3,3.7-10.2l1.7,0.5c-0.9,4.6-2.2,8.6-4.1,12.1c-1.9,3.5-3.9,5.6-5.9,6.3c-2.5,0.9-4.5-0.8-5.9-5
			C1302.2,703.4,1301.8,702.2,1301.4,700.7z M1300.8,696.3c-3-0.8-5.3-0.8-7-0.3c-1.8,0.6-2.9,2.2-3.5,4.8c-0.6,2.6-0.3,5.3,0.7,8.3
			c0.8,2.3,2,3.3,3.5,2.7c1.7-0.6,3.6-5.3,5.9-14.2C1300.4,697.4,1300.6,697,1300.8,696.3z"/>
		<path d="M1322,706c-0.1-1.1-0.3-2.4-0.8-3.7c-1.1-3.3-2.6-6.4-4.5-9.3c-1.9-2.9-3.6-4.8-5.3-5.7c0.9-0.8,1.7-1.4,2.4-1.6
			c1.3-0.4,2.8,0.7,4.7,3.3c1.9,2.6,3.9,6.5,6,11.7c1-2.8,1.6-5.7,2-8.6c0.3-2.9,0.3-5.1-0.2-6.5c0-0.1-0.1-0.3-0.2-0.6
			c0.9-0.7,1.6-1.2,2.1-1.4c1-0.3,1.7-0.1,1.9,0.6c0.1,0.2,0.3,1.6,0.7,4c0.1,0.6,0.2,1.1,0.3,1.6l0.3,1.2c0.2,0.9,0.5,2,0.9,3.1
			c1.1,3.2,2.4,4.6,3.9,4.1c1.4-0.5,2.2-2.1,2.4-4.8c0.2-2.7-0.2-5.6-1.2-8.7c-0.8-2.2-1.8-3.3-3-3.4c0.8-1.2,1.6-1.9,2.5-2.2
			c1.4-0.5,2.5,0.4,3.2,2.5c1.1,3.2,1.2,7.2,0.4,12.2c-0.7,4.3-2.3,6.9-4.6,7.7c-2.7,0.9-4.7-0.9-6.3-5.3l-1.3-4.1
			c-0.3,3.4-0.9,6.4-1.7,9C1326,703.6,1324.4,705.2,1322,706z"/>
		<path d="M1349.6,688.1c1.2,3.4,3.2,4.6,6.1,3.6c2.5-0.9,4.9-3,7.1-6.4c2.2-3.4,3.9-7.5,5-12.2l1.8,0.3c-0.8,5-2.6,9.6-5.3,13.6
			c-2.7,4-5.7,6.6-9,7.7c-2.1,0.7-4,0.6-5.7-0.3c-1.7-0.9-2.9-2.6-3.7-4.9c-1.2-3.4-1-6.6,0.4-9.8c1.4-3.2,3.7-5.3,6.8-6.3
			c1.5-0.5,2.8-0.6,4-0.1c1.2,0.4,2,1.3,2.4,2.6c0.7,2.1,0.1,4.4-1.9,6.8C1355.5,685.1,1352.9,686.9,1349.6,688.1z M1349.2,686.3
			c2.4-1,4.3-2.4,5.6-4.2c1.3-1.9,1.7-3.6,1.1-5.3c-0.5-1.5-1.4-2-2.8-1.5c-1.6,0.5-2.8,1.9-3.5,4
			C1348.8,681.5,1348.7,683.8,1349.2,686.3z"/>
		<path d="M1373.3,681.1c1.2-10.2,3.4-15.8,6.7-16.9c2.6-0.9,4.8,1.2,6.5,6.3l0.8,2.1c0.8,2.4,1.5,4.1,2.1,4.9
			c0.6,0.9,1.2,1.2,1.9,0.9c1-0.3,1.9-1.5,2.6-3.6c0.7-2,1.7-5.9,3-11.7l1.8,0.4c-0.9,5.7-2,10.1-3.2,13.1s-2.7,4.8-4.3,5.4
			c-1.5,0.5-2.8,0.1-3.9-1.1c-1.1-1.2-2.2-3.6-3.4-7.1l-0.5-1.5c-0.7-1.9-1.2-3.2-1.7-3.9c-0.5-0.7-1.1-0.9-1.7-0.7
			c-1.5,0.5-3,4.4-4.3,11.7c-0.3,1.8-0.5,2.9-0.6,3.5c-0.4,1.9-0.4,3.1-0.2,3.8c0.1,0.3,0.3,0.5,0.5,0.7c-0.6,0.5-1.1,0.8-1.6,1
			c-1.2,0.4-2,0-2.4-1.3c-0.1-0.4-0.5-2.1-1.3-5.2l-0.9-3.9c-0.4-1.7-0.7-2.9-1-3.8c-0.4-1.2-1-2.1-1.8-2.6c0.2-0.2,0.6-0.4,1.1-0.8
			c0.6-0.5,1.2-0.8,1.6-1c0.9-0.3,1.6,0.2,2,1.5c0.2,0.7,0.6,1.9,1,3.7c0.1,0.4,0.2,0.8,0.3,1.1L1373.3,681.1z"/>
	</g>
</g>
<g class="st5">
	<path class="st6" d="M888.8,362.5l68.6-12c20.2-3.2,36.8-4.7,49.8-4.7c13,0,24.9,1.4,35.8,3.9c26.7,6.3,45.8,18.9,57.1,37.7
		c11.3,18.8,14.6,38.4,9.7,58.8c-4.6,19.5-15.3,34.5-32.1,44.9c-16.8,10.4-37.9,12.7-63.3,6.6c-14.7-3.5-28.9-10-42.6-19.5
		S940,451.7,918,427.4c-11.2,1.7-23.5,4-36.6,7c-40.6,9-70.1,14.2-88.5,15.4c-18.4,1.2-35.2,0-50.3-3.5c-31-7.3-52.8-21.7-65.3-43.1
		c-12.5-21.4-15.7-45-9.6-70.9c5.5-23.4,17.3-40.9,35.3-52.5c18-11.6,40.8-14.1,68.5-7.6c17.6,4.2,35.1,12.6,52.3,25.2
		C841,310,862.7,331.7,888.8,362.5z M878.4,363.3c-12.4-14-24.6-24.7-36.5-32.1c-22.2-14.2-46.6-24.4-73.3-30.7
		c-30-7.1-53.5-6.5-70.6,1.8c-12.1,6.1-19.5,15.2-22.4,27.4c-2.4,10.3-0.8,19.8,4.9,28.4c5.7,8.6,16.9,14.9,33.5,18.8
		c16.6,3.9,37.1,5.1,61.5,3.5C799.9,378.8,834.2,373.1,878.4,363.3z M927.3,424.1c24.4,25.2,56.5,42.5,96.3,51.9
		c25.8,6.1,44.6,6.1,56.3-0.1c11.7-6.2,19.1-15.7,22.1-28.6c2.3-9.6,1.4-18.1-2.8-25.4c-4.1-7.3-11.7-12.2-22.5-14.8
		C1050.4,401,1000.7,406.6,927.3,424.1z"/>
</g>
<g class="st5">
	<path class="st6" d="M735.6,516c-1.3,5.5-4.4,9.3-9.3,11.4c-3.1,1.3-6.1,2.1-9.1,2.4c-2.2,0.2-4.7-0.1-7.7-0.8l-13.7-3.2l-4.9,20.6
		l15,3.5c1.9,0.5,2.7,1.4,2.4,2.9c-0.3,1.5-1.5,2-3.4,1.5l-25.2-5.9c-1.9-0.5-2.7-1.4-2.4-2.9c0.3-1.5,1.5-2,3.4-1.5l5.9,1.4
		l12.3-52.2l-5.9-1.4c-1.9-0.5-2.7-1.4-2.4-2.9c0.3-1.5,1.5-2,3.4-1.5l25.4,6c5.4,1.3,9.8,4,12.9,8
		C735.8,505.9,736.9,510.7,735.6,516z M731.2,515c0.9-3.9,0-7.6-2.7-11c-2.5-3.1-5.7-5.1-9.8-6.1l-15.6-3.7l-6.4,27.2l13.9,3.3
		c3,0.7,6,0.7,9,0.1c3.3-0.6,6-2,8-3.9C729.6,519.1,730.7,517.2,731.2,515z"/>
	<path class="st6" d="M793.1,551.5c-1.6,6.7-5.3,11.9-11.2,15.4c-5.9,3.6-12.2,4.5-18.9,3c-6.8-1.6-12-5.3-15.7-11.1
		c-3.7-5.8-4.7-12.1-3.1-18.8c1.6-6.8,5.3-11.9,11.2-15.5c5.9-3.6,12.2-4.5,19-2.9c6.8,1.6,12,5.3,15.6,11.1
		C793.6,538.4,794.7,544.7,793.1,551.5z M788.7,550.4c1.3-5.6,0.5-10.7-2.5-15.4c-3-4.7-7.3-7.8-12.8-9.1
		c-5.6-1.3-10.7-0.5-15.5,2.4c-4.8,2.9-7.9,7.1-9.2,12.6c-1.3,5.5-0.4,10.7,2.6,15.4c3,4.8,7.3,7.8,12.8,9.1
		c5.6,1.3,10.7,0.5,15.5-2.4C784.3,560.2,787.4,555.9,788.7,550.4z"/>
	<path class="st6" d="M853.8,587.1c-0.3,1.5-1.5,2-3.4,1.5l-8.1-1.9l1.5-6.4c-7.2,4-14.3,5.2-21.3,3.6c-4.3-1-7.2-2.9-8.9-5.8
		c-2.2-3.7-2.8-7.6-1.8-11.7l6.6-28.2l-5.9-1.4c-1.9-0.5-2.7-1.4-2.4-2.9c0.3-1.5,1.5-2,3.4-1.5l10.3,2.4l-7.7,32.6
		c-0.7,2.8-0.3,5.4,1,7.6c1.3,2.3,3.4,3.7,6.2,4.4c7.1,1.7,14.4,0,21.9-5.2l6.6-28.2l-8.1-1.9c-1.9-0.5-2.7-1.4-2.4-2.9
		c0.3-1.5,1.5-2,3.4-1.5l12.4,2.9l-9.6,40.7l3.7,0.9C853.3,584.7,854.1,585.7,853.8,587.1z"/>
	<path class="st6" d="M917.7,602.2c-0.3,1.5-1.5,2-3.4,1.5l-11.7-2.8c-2-0.5-2.8-1.4-2.5-2.9s1.5-2,3.5-1.5l3.6,0.9l6.3-26.8
		c0.8-3.4,0.2-6.4-1.8-9.1c-1.9-2.5-4.5-4.1-8-4.9c-3.5-0.8-6.9-0.5-10.1,0.9c-1.9,0.8-4.8,2.7-8.9,5.7l-6.5,27.4l4.9,1.2
		c1.9,0.5,2.7,1.4,2.4,2.9c-0.3,1.5-1.5,2-3.4,1.5l-14.3-3.4c-1.9-0.5-2.7-1.4-2.4-2.9s1.5-2,3.4-1.5l4.9,1.2l8.5-36.3l-3.7-0.9
		c-1.9-0.5-2.7-1.4-2.4-2.9c0.3-1.5,1.5-2,3.4-1.5l8.1,1.9l-1.6,6.6c6.7-4.2,12.8-5.6,18.5-4.3c6.4,1.5,10.7,5.1,12.7,10.7
		c1,2.8,1.2,5.5,0.6,8l-6.5,27.5l3.7,0.9C917.2,599.8,918,600.7,917.7,602.2z"/>
	<path class="st6" d="M986,618.3c-0.3,1.5-1.5,2-3.5,1.5l-10.3-2.4l2-8.7c-6.7,5.7-14,7.7-21.8,5.9c-4.2-1-7.8-3-10.8-6
		c-3.1-3-5.1-6.6-6.2-10.8c-1.2-4.4-1.3-8.6-0.3-12.8c1-4.2,3-8,6-11.4c3-3.3,6.6-5.6,10.7-6.9c4.1-1.3,8.2-1.4,12.1-0.5
		c7.6,1.8,13.2,6.8,16.8,14.9l5.8-24.7l-5.8-1.4c-2-0.5-2.8-1.4-2.4-2.9c0.3-1.5,1.5-2,3.5-1.5l10.3,2.4l-14.4,61l5.8,1.4
		C985.5,615.9,986.3,616.8,986,618.3z M977.5,594.9c1.3-5.4,0.5-10.5-2.2-15.2c-2.7-4.7-6.8-7.8-12.2-9c-5.4-1.3-10.4-0.4-14.9,2.6
		c-4.6,3-7.5,7.2-8.8,12.7c-1.3,5.4-0.5,10.5,2.2,15.2c2.7,4.8,6.8,7.8,12.2,9c5.3,1.3,10.3,0.4,15-2.7
		C973.4,604.5,976.3,600.3,977.5,594.9z"/>
	<path class="st6" d="M1043.4,620.9c-1.1,4.9-4.5,8-9.9,9.4c-4.4,1.2-9.3,1.1-14.5-0.1c-6.9-1.6-12.1-4.7-15.7-9.3
		c-0.4,1.7-1,2.7-1.7,3c-0.4,0.2-0.9,0.2-1.3,0.1c-1.5-0.3-2-1.5-1.5-3.4l2.1-9c0.5-1.9,1.4-2.7,2.9-2.4c1.5,0.4,2.1,1.3,1.7,2.9
		c-0.8,3.5,0.9,6.8,5.1,9.8c2.4,1.7,5.5,3.1,9.3,4c3.9,0.9,7.6,1.1,11,0.5c4.6-0.8,7.3-2.9,8.2-6.4c1.3-5.4-3.5-9.9-14.3-13.7
		c-4.3-1.5-7.3-2.7-9-3.7c-3.4-1.8-5.6-4-6.7-6.6c-0.9-2.1-1.1-4.2-0.6-6.3c1-4.1,3.9-6.8,8.9-8c3.9-0.9,8.2-0.9,12.7,0.2
		c6,1.4,10.6,4.1,13.7,7.9c0.5-1.9,1.4-2.7,2.9-2.3c1.5,0.4,2,1.5,1.5,3.5l-1.8,7.5c-0.5,1.9-1.4,2.7-2.9,2.4
		c-1.3-0.3-1.9-1.3-1.6-3c0.3-2.1-0.4-4.1-2-5.9c-2.4-2.6-5.9-4.5-10.6-5.6c-4.9-1.2-8.9-1.1-12.1,0.3c-2.4,1-3.8,2.4-4.2,4.3
		c-0.5,2.1,0.3,4.1,2.4,6.1c1.5,1.4,4.5,2.9,8.9,4.5c6,2.1,10,3.9,12.1,5.2C1042.3,610.5,1044.7,615.3,1043.4,620.9z"/>
</g>
<ellipse transform="matrix(0.5109 -0.8597 0.8597 0.5109 143.385 1343.0001)" class="st0" cx="1251.9" cy="545.5" rx="256.7" ry="615.1"/>
<g>
	<path class="st1" d="M1686.7,871.8c-8.3,16.7-6,35.8-2.9,37.4"/>
	<path class="st1" d="M1706.4,867.9c-8.3,16.7-6,35.8-2.9,37.4"/>
	<path class="st1" d="M1726,859.9c-8.3,16.7-6,35.8-2.9,37.4"/>
	<path class="st1" d="M1743.7,854.4c-7.8,15.7-7.8,32.6-5.5,33.7"/>
	<path class="st1" d="M1760.3,846.3c-7.8,15.7-7.5,30.8-5.2,31.9"/>
	<path class="st1" d="M1664.1,874c-10.4,20.9-9.3,38.8-3,41.9"/>
	<path class="st1" d="M1637.1,873.3c-8.6,16.5-11.4,41.3-2.1,46.4"/>
	<path class="st1" d="M1556.4,866.3c-12.4,25-14.8,49.1-5.4,53.8"/>
	<path class="st1" d="M1583,870.1c-12.4,25-14.8,49.1-5.4,53.8"/>
	<path class="st1" d="M1613.8,872.4c-12.4,25-14.4,44.7-4.9,49.4"/>
	<path class="st1" d="M1518.4,856.9c-14.5,29.2-18.6,56.6-9.1,61.3"/>
	<path class="st1" d="M1486.2,850.3c-14.5,29.2-18.6,56.6-9.1,61.3"/>
	<path class="st1" d="M1448.2,840.8c-14.5,29.2-18.6,56.6-9.1,61.3"/>
	<path class="st1" d="M1416,834.2c-14.5,29.2-18.6,56.6-9.1,61.3"/>
	<path class="st1" d="M1381.7,817.2c-16.6,33.4-25.5,62.6-12.9,68.9"/>
	<path class="st1" d="M1348.4,804.6c-16.7,27.9-23,55.3-14.2,61.3"/>
	<path class="st1" d="M1317.6,794c-16.7,27.9-23,55.3-14.2,61.3"/>
	<path class="st1" d="M1286.8,779.4c-19,31.9-25.5,56.5-13.8,64.4"/>
	<path class="st1" d="M1262.4,767.3c-19,31.9-25.5,56.5-13.8,64.4"/>
	<path class="st1" d="M1230.8,751.6c-19,31.9-25.5,56.5-13.8,64.4"/>
</g>
<g>
	<path class="st1" d="M754.6,334.3c-9.4,16-26.4,24-29.4,22.1"/>
	<path class="st1" d="M747.5,314.9c-9.4,16-26.4,24-29.4,22.1"/>
	<path class="st1" d="M743.8,293.5c-9.4,16-26.4,24-29.4,22.1"/>
	<path class="st1" d="M739.1,275.1c-8.9,15-22.8,23.9-24.9,22.5"/>
	<path class="st1" d="M737.1,256.3c-8.9,15-21.5,22.7-23.6,21.3"/>
	<path class="st1" d="M764.6,355.3c-11.8,20-27.2,28.5-33.1,24.6"/>
	<path class="st1" d="M779.3,378.7c-9.1,16.2-28.2,31.6-37.2,26.1"/>
	<path class="st1" d="M827.3,446c-14.2,24-32.8,38.7-41.6,32.9"/>
	<path class="st1" d="M810.2,424.6c-14.2,24-32.8,38.7-41.6,32.9"/>
	<path class="st1" d="M792.2,398.7c-14.2,24-29.4,36.1-38.2,30.2"/>
	<path class="st1" d="M855,474.4c-16.5,28-37,46-45.9,40.1"/>
	<path class="st1" d="M877.3,499.3c-16.5,28-37,46-45.9,40.1"/>
	<path class="st1" d="M905,527.7c-16.5,28-37,46-45.9,40.1"/>
	<path class="st1" d="M927.3,552.6c-16.5,28-35,42-43.9,36.1"/>
	<path class="st1" d="M959.3,573.8c-18.9,32-34.4,51.4-46.1,43.6"/>
	<path class="st1" d="M987.1,596.5c-14.4,29.3-33.7,49.2-43.2,44.6"/>
	<path class="st1" d="M1012,618c-14.4,29.3-33.7,49.2-43.2,44.6"/>
	<path class="st1" d="M1040.2,637.5c-16.4,33.4-33.3,52-46,45.8"/>
	<path class="st1" d="M1062.9,652.6c-16.4,33.4-33.3,52-46,45.8"/>
	<path class="st1" d="M1092.4,672.2c-16.4,33.4-33.3,52-46,45.8"/>
	<path class="st1" d="M1121.1,695.8c-16.4,33.4-33.3,52-46,45.8"/>
	<path class="st1" d="M1156.5,713.4c-16.4,33.4-33.3,52-46,45.8"/>
	<path class="st1" d="M1181.9,733.1c-16.4,33.4-26.8,48.3-39.5,42.2"/>
	<path class="st1" d="M1206.9,745.5c-16.4,33.4-26.8,48.3-39.5,42.2"/>
</g>
<ellipse transform="matrix(0.5225 -0.8526 0.8526 0.5225 194.0776 1324.8164)" class="st2" cx="1279.9" cy="489.1" rx="256.6" ry="615.4"/>
<linearGradient id="SVGID_3_" gradientUnits="userSpaceOnUse" x1="723.5749" y1="291.0273" x2="1732.0289" y2="291.0273" gradientTransform="matrix(0.8956 0.445 -0.445 0.8956 309.798 -317.8167)">
	<stop  offset="1.274966e-07" style="stop-color:#D9E021"/>
	<stop  offset="1.098442e-02" style="stop-color:#DBE120"/>
	<stop  offset="0.1677" style="stop-color:#EFF20E"/>
	<stop  offset="0.3241" style="stop-color:#FBFC04"/>
	<stop  offset="0.4791" style="stop-color:#FFFF00"/>
	<stop  offset="0.6771" style="stop-color:#FCFD03"/>
	<stop  offset="0.8186" style="stop-color:#F3F50B"/>
	<stop  offset="0.9422" style="stop-color:#E3E818"/>
	<stop  offset="1" style="stop-color:#D9E021"/>
</linearGradient>
<path class="st8" d="M1713.1,750.2c56.7-101.9-91.4-301.3-330.6-445.5S903.3,126.2,846.7,228C790,329.9,938,529.3,1177.3,673.6
	S1656.4,852.1,1713.1,750.2z"/>
<g class="st4">
	<g>
		<path d="M1561.7,850.1c-0.3-0.6-0.5-1.3-0.5-2c-0.1-2.2,1.6-4.2,5-6.1c3.4-1.8,7.2-2.8,11.5-2.9c4.5-0.1,8.1,0.8,10.8,2.7
			c2.7,1.9,4,4.6,4.1,8.1c0.1,4.6-1.8,8.7-5.8,12.3c-2.1,1.9-4.7,3.5-7.9,4.7c-3.2,1.3-6.2,1.9-9.2,2c-2.8,0.1-4.3-0.9-4.3-3
			c0-0.8,0.2-2.3,0.6-4.7l2.1-12.1c0.2-1,0.3-1.8,0.3-2.2c0-0.4-0.2-0.8-0.5-1.2c1.6-0.7,2.8-1,3.4-1c0.8,0,1.2,0.4,1.2,1.3
			c0,0.2-0.2,1.3-0.5,3.2l-1.8,10.1c-0.4,2.6-0.7,4.2-0.6,4.9c0,0.7,0.3,1.2,0.8,1.5c0.5,0.3,1.5,0.4,2.8,0.3
			c4.5-0.1,8.2-1.6,11.2-4.3c3-2.8,4.4-6.2,4.3-10.2c-0.1-3.1-1.2-5.6-3.5-7.4c-2.2-1.8-5.2-2.7-8.9-2.6c-3,0.1-5.7,0.9-8.3,2.3
			C1565.5,845.4,1563.4,847.4,1561.7,850.1z"/>
		<path d="M1612,855c-1.5,3.3-3.4,6.1-5.7,8.4c-2.3,2.3-4.3,3.5-6,3.6c-1.3,0-2.4-0.5-3.2-1.7c-0.8-1.1-1.2-2.7-1.3-4.6
			c-0.1-3.8,1-7.3,3.3-10.2c2.3-3,5-4.5,8-4.6c1.9,0,3.9,0.5,6.1,1.6c0.3-1.1,1.6-1.8,3.9-1.8c0.1,0,0.4,0,0.7,0
			c-0.7,1.1-1.2,2.6-1.5,4.4l-0.3,1.6c-0.3,1.8-0.4,3.8-0.4,6.1c0.1,2.7,0.7,4,2,4c1.3,0,3.1-1.2,5.4-3.5c2.3-2.3,4.5-5.1,6.6-8.6
			l1.5,1c-2.2,4.1-4.7,7.6-7.6,10.3c-2.9,2.8-5.4,4.2-7.5,4.2c-2.7,0.1-4.1-2.1-4.2-6.5C1612,857.8,1612,856.6,1612,855z
			 M1612.8,850.6c-2.6-1.6-4.8-2.4-6.5-2.4c-1.9,0-3.5,1.2-4.8,3.5c-1.3,2.3-1.9,5-1.9,8.1c0.1,2.5,0.9,3.7,2.5,3.7
			c1.8,0,5.1-4,9.9-11.8C1612.1,851.5,1612.3,851.2,1612.8,850.6z"/>
		<path d="M1630.1,866.2c0.3-1.1,0.4-2.4,0.4-3.8c-0.1-3.5-0.6-6.9-1.5-10.2c-0.9-3.3-2-5.7-3.3-7c1.1-0.5,2.1-0.8,2.8-0.8
			c1.3,0,2.5,1.5,3.5,4.6c1,3.1,1.7,7.4,2.2,12.9c1.8-2.4,3.2-4.9,4.4-7.6c1.2-2.7,1.8-4.8,1.7-6.3c0-0.1,0-0.3,0-0.6
			c1.1-0.4,1.9-0.6,2.5-0.6c1.1,0,1.6,0.4,1.6,1.2c0,0.3-0.2,1.6-0.6,4.1c-0.1,0.6-0.1,1.1-0.2,1.6l-0.1,1.3c-0.1,1-0.1,2.1-0.1,3.3
			c0.1,3.4,0.9,5.1,2.5,5.1c1.5,0,2.7-1.3,3.8-3.8c1-2.5,1.5-5.4,1.4-8.7c-0.1-2.3-0.7-3.7-1.9-4.1c1.1-0.9,2.1-1.3,3.1-1.4
			c1.5,0,2.3,1.1,2.3,3.4c0.1,3.4-1,7.3-3.3,11.7c-2,3.9-4.2,5.9-6.7,5.9c-2.8,0.1-4.3-2.3-4.4-7l0-4.3c-1.3,3.2-2.8,5.9-4.3,8
			C1634.6,865.1,1632.6,866.2,1630.1,866.2z"/>
		<path d="M1661.8,857.4c0.1,3.6,1.7,5.3,4.7,5.3c2.7-0.1,5.6-1.4,8.7-4c3.1-2.6,6-6,8.4-10.1l1.6,0.8c-2.3,4.6-5.4,8.3-9.2,11.4
			c-3.8,3-7.4,4.6-10.9,4.7c-2.2,0.1-4-0.6-5.3-2c-1.3-1.4-2-3.3-2.1-5.8c-0.1-3.6,1-6.6,3.3-9.2c2.3-2.6,5.1-3.9,8.4-4
			c1.6,0,2.9,0.3,3.9,1.1c1,0.8,1.5,1.8,1.5,3.2c0.1,2.2-1.2,4.2-3.9,5.9C1668.3,856.4,1665.3,857.3,1661.8,857.4z M1661.9,855.6
			c2.6-0.2,4.8-1,6.6-2.4c1.8-1.4,2.7-2.9,2.7-4.7c0-1.6-0.8-2.3-2.2-2.3c-1.7,0-3.2,1-4.6,2.8
			C1663,850.9,1662.2,853.1,1661.9,855.6z"/>
		<path d="M1686.5,857.9c4.2-9.3,8-14,11.5-14.1c2.7-0.1,4.2,2.6,4.3,8l0.1,2.2c0.1,2.6,0.2,4.4,0.5,5.3c0.3,1,0.8,1.5,1.5,1.4
			c1.1,0,2.3-0.9,3.6-2.6c1.3-1.7,3.4-5.2,6.4-10.3l1.6,0.9c-2.6,5.2-4.9,9-7,11.5s-4,3.8-5.7,3.8c-1.6,0-2.7-0.7-3.4-2.2
			c-0.7-1.5-1.1-4.1-1.1-7.8l-0.1-1.6c0-2-0.2-3.4-0.5-4.2c-0.3-0.8-0.7-1.2-1.4-1.2c-1.6,0-4.2,3.3-7.7,9.9
			c-0.9,1.6-1.4,2.6-1.7,3.1c-0.9,1.7-1.4,2.9-1.3,3.6c0,0.3,0.1,0.6,0.3,0.8c-0.7,0.3-1.3,0.5-1.8,0.5c-1.2,0-1.9-0.6-1.9-2
			c0-0.4,0.1-2.2,0.4-5.3l0.3-4c0.1-1.7,0.2-3,0.2-3.9c0-1.3-0.4-2.3-1-3.1c0.3-0.1,0.7-0.2,1.3-0.5c0.8-0.3,1.4-0.4,1.8-0.4
			c1,0,1.5,0.7,1.5,2.1c0,0.7,0,2-0.2,3.8c0,0.4-0.1,0.8-0.1,1.1L1686.5,857.9z"/>
	</g>
</g>
<g class="st5">
	<path class="st6" d="M1320.1,408.4l69,9.2c20.2,3,36.5,6.5,48.9,10.5s23.3,8.8,32.9,14.5c23.6,14.1,38,31.8,43.1,53.1
		c5.1,21.3,2.3,41-8.4,59c-10.3,17.2-25,28.3-44.1,33.2c-19.2,4.9-39.9,0.7-62.3-12.7c-13-7.8-24.6-18.2-34.8-31.5
		s-22.2-34.8-35.9-64.6c-11.2-1.8-23.6-3.2-37-4.4c-41.5-3.6-71.1-7.6-89-11.9c-17.9-4.4-33.5-10.5-46.9-18.5
		c-27.4-16.3-43.8-36.6-49.4-60.7c-5.5-24.2-1.5-47.7,12.2-70.6c12.3-20.7,28.8-33.8,49.4-39.5c20.6-5.7,43.2-1.2,67.7,13.4
		c15.6,9.3,29.7,22.5,42.3,39.8C1290.4,343.9,1304.5,371.2,1320.1,408.4z M1310,406.1c-7.6-17.1-16-31-25.2-41.6
		c-16.9-20.2-37.1-37.3-60.7-51.3c-26.5-15.8-49.1-22.3-67.9-19.5c-13.4,2.2-23.2,8.7-29.6,19.4c-5.4,9.1-6.7,18.6-3.9,28.6
		c2.9,9.9,11.6,19.3,26.3,28c14.7,8.8,33.9,16,57.6,21.8S1264.9,402.1,1310,406.1z M1338.4,478.8c15.7,31.3,41.1,57.5,76.2,78.4
		c22.8,13.6,40.7,19.2,53.7,16.8c13-2.4,22.9-9.2,29.7-20.6c5.1-8.5,6.7-16.8,5-25c-1.8-8.2-7.4-15.1-17.1-20.9
		C1462.7,493.7,1413.6,484.1,1338.4,478.8z"/>
</g>
<g class="st5">
	<path class="st6" d="M1127.9,508.8c-2.9,4.8-7,7.5-12.3,8.1c-3.3,0.3-6.4,0.2-9.4-0.5c-2.1-0.5-4.5-1.5-7.1-3.1l-12.1-7.2
		l-10.8,18.2l13.2,7.9c1.7,1,2.2,2.2,1.4,3.5c-0.8,1.3-2,1.4-3.7,0.4l-22.3-13.3c-1.7-1-2.2-2.2-1.4-3.5s2-1.4,3.7-0.4l5.2,3.1
		l27.4-46l-5.2-3.1c-1.7-1-2.2-2.2-1.4-3.5c0.8-1.3,2-1.4,3.7-0.4l22.4,13.3c4.8,2.9,8.1,6.7,9.9,11.6
		C1131.1,499.2,1130.7,504.1,1127.9,508.8z M1124,506.5c2.1-3.5,2.3-7.2,0.7-11.3c-1.4-3.7-3.9-6.6-7.5-8.7l-13.7-8.2l-14.3,24
		l12.3,7.3c2.6,1.6,5.5,2.5,8.6,2.8c3.4,0.4,6.3-0.1,8.8-1.3C1121.2,509.9,1122.9,508.4,1124,506.5z"/>
	<path class="st6" d="M1172,559.9c-3.5,5.9-8.6,9.7-15.3,11.4s-13,0.7-18.9-2.9c-6-3.6-9.8-8.6-11.6-15.3
		c-1.8-6.6-0.9-12.9,2.7-18.9s8.7-9.8,15.3-11.4c6.7-1.6,13-0.7,19,2.9c6,3.6,9.8,8.6,11.6,15.3
		C1176.5,547.6,1175.6,553.9,1172,559.9z M1168.1,557.5c2.9-4.9,3.7-10.1,2.2-15.5c-1.4-5.4-4.6-9.6-9.5-12.5
		c-4.9-2.9-10.1-3.7-15.5-2.4c-5.5,1.3-9.6,4.4-12.5,9.3s-3.6,10-2.2,15.5c1.4,5.4,4.6,9.6,9.5,12.5c4.9,2.9,10.1,3.7,15.5,2.4
		C1161.1,565.5,1165.2,562.4,1168.1,557.5z"/>
	<path class="st6" d="M1219.2,612.1c-0.8,1.3-2,1.4-3.7,0.4l-7.1-4.2l3.4-5.7c-8.1,1.6-15.2,0.6-21.4-3c-3.8-2.2-6-5-6.8-8.2
		c-0.9-4.2-0.3-8.1,1.8-11.7l14.8-24.9l-5.2-3.1c-1.7-1-2.2-2.2-1.4-3.5c0.8-1.3,2-1.4,3.7-0.4l9.1,5.4l-17.1,28.8
		c-1.5,2.5-1.9,5-1.3,7.6c0.6,2.6,2.1,4.6,4.6,6c6.3,3.7,13.8,4.3,22.4,1.6l14.8-24.9l-7.1-4.2c-1.7-1-2.2-2.2-1.4-3.5
		c0.8-1.3,2-1.4,3.7-0.4l11,6.5l-21.4,35.9l3.3,1.9C1219.5,609.7,1220,610.8,1219.2,612.1z"/>
	<path class="st6" d="M1275.6,645.7c-0.8,1.3-2,1.4-3.7,0.4l-10.3-6.2c-1.7-1-2.2-2.2-1.5-3.5c0.8-1.3,2-1.4,3.8-0.4l3.2,1.9
		l14.1-23.7c1.8-3,2.1-6.1,1-9.2c-1.1-2.9-3.1-5.3-6.2-7.1c-3.1-1.9-6.4-2.6-9.9-2.2c-2,0.2-5.4,1.1-10.2,2.7l-14.4,24.2l4.4,2.6
		c1.7,1,2.2,2.2,1.4,3.5c-0.8,1.3-2,1.4-3.7,0.4l-12.6-7.5c-1.7-1-2.2-2.2-1.4-3.5c0.8-1.3,2-1.4,3.7-0.4l4.4,2.6l19.1-32l-3.3-1.9
		c-1.7-1-2.2-2.2-1.4-3.5c0.8-1.3,2-1.4,3.7-0.4l7.1,4.2l-3.5,5.8c7.6-2,13.9-1.5,19,1.5c5.7,3.4,8.6,8,8.9,14
		c0.1,3-0.5,5.6-1.8,7.8l-14.5,24.3l3.3,1.9C1275.9,643.2,1276.4,644.4,1275.6,645.7z"/>
	<path class="st6" d="M1335.9,681.6c-0.8,1.3-2,1.4-3.8,0.4l-9.1-5.4l4.6-7.7c-8.1,3.5-15.6,3.1-22.5-1c-3.7-2.2-6.5-5.2-8.5-9
		c-2-3.8-2.9-7.9-2.7-12.2c0.2-4.5,1.3-8.6,3.5-12.3c2.2-3.7,5.3-6.7,9.2-9c3.9-2.3,8-3.4,12.3-3.4c4.3,0,8.2,1.1,11.7,3.2
		c6.7,4,10.6,10.4,11.5,19.3l13-21.8l-5.1-3.1c-1.7-1-2.2-2.2-1.4-3.5c0.8-1.3,2-1.4,3.8-0.4l9.1,5.4l-32,53.8l5.1,3.1
		C1336.2,679.1,1336.7,680.3,1335.9,681.6z M1334.9,656.8c2.8-4.8,3.7-9.8,2.5-15.2c-1.2-5.3-4.1-9.4-8.9-12.3
		c-4.7-2.8-9.8-3.5-15-2c-5.3,1.5-9.3,4.7-12.2,9.4c-2.8,4.8-3.7,9.8-2.5,15.2c1.2,5.4,4.2,9.4,8.9,12.3c4.7,2.8,9.7,3.5,15.1,1.9
		C1328.1,664.7,1332.1,661.5,1334.9,656.8z"/>
	<path class="st6" d="M1389.9,701.3c-2.6,4.3-6.6,6.3-12.3,6c-4.6-0.2-9.2-1.7-13.8-4.5c-6.1-3.6-10.2-8.1-12.2-13.6
		c-0.9,1.5-1.7,2.3-2.5,2.3c-0.5,0-0.9-0.1-1.3-0.3c-1.3-0.8-1.4-2-0.4-3.7l4.7-8c1-1.7,2.2-2.2,3.5-1.4c1.3,0.8,1.6,1.9,0.7,3.3
		c-1.8,3.1-1.2,6.7,1.9,10.9c1.7,2.4,4.3,4.6,7.7,6.6c3.5,2.1,6.9,3.3,10.4,3.8c4.7,0.6,7.9-0.6,9.7-3.6c2.8-4.7-0.3-10.5-9.5-17.4
		c-3.6-2.7-6.1-4.8-7.5-6.2c-2.7-2.8-4.2-5.5-4.4-8.4c-0.2-2.3,0.2-4.3,1.3-6.2c2.2-3.6,5.8-5.3,10.9-5c4,0.3,8,1.6,12.1,4
		c5.3,3.2,8.9,7.1,10.7,11.6c1-1.7,2.1-2.1,3.4-1.4c1.3,0.8,1.5,2,0.4,3.8l-3.9,6.6c-1,1.7-2.2,2.2-3.5,1.4
		c-1.2-0.7-1.4-1.8-0.6-3.3c0.9-1.9,0.9-4-0.1-6.2c-1.5-3.2-4.3-6-8.4-8.5c-4.3-2.6-8.2-3.7-11.6-3.4c-2.6,0.2-4.4,1.2-5.3,2.8
		c-1.1,1.8-0.9,4,0.5,6.5c1,1.8,3.4,4.1,7.2,7c5.1,3.8,8.4,6.7,10,8.6C1392,691.1,1392.9,696.3,1389.9,701.3z"/>
</g>
</svg>
