<svg id="Layer_1" data-name="Layer 1" xmlns="http://www.w3.org/2000/svg" viewBox="0 0 748 659.94"><defs><style>.cls-1{fill:#46caad;}.cls-2{fill:#1c1c1c;}.cls-3{fill:#fff;}</style></defs><title>Reports</title><rect class="cls-1" x="131.56" y="47" width="479.89" height="597.35"/><path class="cls-2" d="M941.74,684.44H424.26V55.9H941.74ZM461.85,653.25h442.3V87.09H461.85Z" transform="translate(-311.5 -24.5)"/><path class="cls-3" d="M805.55,244.18H560.46c-4.32,0-7.83-2.91-7.83-6.5s3.51-6.5,7.83-6.5H805.54c4.32,0,7.84,2.91,7.84,6.5S809.87,244.18,805.55,244.18Z" transform="translate(-311.5 -24.5)"/><path class="cls-3" d="M805.55,384H560.46c-4.32,0-7.83-2.91-7.83-6.5s3.51-6.5,7.83-6.5H805.54c4.32,0,7.84,2.91,7.84,6.5S809.87,384,805.55,384Z" transform="translate(-311.5 -24.5)"/><path class="cls-3" d="M805.55,523.83H560.46c-4.32,0-7.83-2.91-7.83-6.5s3.51-6.5,7.83-6.5H805.54c4.32,0,7.84,2.91,7.84,6.5S809.87,523.83,805.55,523.83Z" transform="translate(-311.5 -24.5)"/><rect class="cls-2" x="38" y="9.5" width="667" height="30"/><circle class="cls-2" cx="723.5" cy="24.5" r="24.5"/><circle class="cls-2" cx="24.5" cy="24.5" r="24.5"/></svg>