<?xml version="1.0" encoding="utf-8"?>
<!-- Generator: Adobe Illustrator 23.0.0, SVG Export Plug-In . SVG Version: 6.00 Build 0)  -->
<svg version="1.1" id="Layer_1" xmlns="http://www.w3.org/2000/svg" xmlns:xlink="http://www.w3.org/1999/xlink" x="0px" y="0px"
	 viewBox="0 0 1366 768" style="enable-background:new 0 0 1366 768;" xml:space="preserve">
<style type="text/css">
	.st0{fill:#2C3A47;}
	.st1{fill:#FFFFFF;}
</style>
<g>
	<g>
		<path class="st0" d="M806.95,745.9c0.28-102.5-65.11-185.78-146.04-185.99s-146.77,82.7-147.04,185.21"/>
	</g>
	<g>
		<circle class="st0" cx="660.4" cy="305.61" r="258.98"/>
	</g>
	<g>
		<path d="M693.33,564.59c-72.45,0-140.57-28.21-191.8-79.45c-51.23-51.23-79.45-119.35-79.45-191.8s28.21-140.57,79.45-191.8
			S620.88,22.1,693.33,22.1s140.57,28.21,191.8,79.45c51.23,51.23,79.45,119.35,79.45,191.8s-28.21,140.57-79.45,191.8
			C833.9,536.37,765.78,564.59,693.33,564.59z M693.33,46.63c-136.04,0-246.72,110.68-246.72,246.72
			c0,136.04,110.68,246.72,246.72,246.72c136.04,0,246.72-110.68,246.72-246.72C940.05,157.3,829.37,46.63,693.33,46.63z"/>
	</g>
	<g>
		<path class="st1" d="M799,303.15H595.4c-5.42,0-9.81-4.39-9.81-9.81c0-5.42,4.39-9.81,9.81-9.81H799c5.42,0,9.81,4.39,9.81,9.81
			C808.81,298.76,804.42,303.15,799,303.15z"/>
	</g>
	<g>
		<path d="M855.76,733.67l-24.53-0.07c0.13-46.83-14.06-90.78-39.95-123.75c-25.22-32.11-58.55-49.85-93.86-49.95
			c-0.1,0-0.19,0-0.29,0c-35.21,0-68.52,17.55-93.84,49.44c-26.07,32.83-40.49,76.7-40.62,123.53l-24.53-0.07
			c0.14-52.32,16.45-101.59,45.93-138.72c30.07-37.88,70.21-58.72,113.05-58.72c0.12,0,0.24,0,0.36,0
			c42.98,0.12,83.14,21.19,113.09,59.33C839.85,632,855.9,681.35,855.76,733.67z"/>
	</g>
	<g>
		<path class="st1" d="M697.2,404.95c-5.42,0-9.81-4.39-9.81-9.81v-203.6c0-5.42,4.39-9.81,9.81-9.81c5.42,0,9.81,4.39,9.81,9.81
			v203.6C707.01,400.56,702.62,404.95,697.2,404.95z"/>
	</g>
</g>
</svg>
