<svg id="Layer_1" data-name="Layer 1" xmlns="http://www.w3.org/2000/svg" viewBox="0 0 460.99 560.04"><title>noresult</title><path d="M467.52,548,323,491.89c23.6-11.82,38.31-27,33.62-44.7-18.07-56.78-136-62.78-202.62-60.66-61.51,2-137.26,29.69-139.84,65.82C22.5,504.5,145.5,522.5,191,519.47c30.49-2,72.73-6,105.06-16.67,0,0,91.85,36.17,147,56.75a28.34,28.34,0,0,0,25.33-2.8h0A4.93,4.93,0,0,0,467.52,548Z" transform="translate(-10.68 -15.13)" style="fill:#fff;stroke:#f15a24;stroke-miterlimit:10;stroke-width:2px"/><path d="M121.5,422.5s135-24,184,23" transform="translate(-10.68 -15.13)" style="fill:none;stroke:#f15a24;stroke-miterlimit:10;stroke-width:2px"/><path d="M50.5,452.5c9,45,92.36,52,144,52s135-22,126-56c-14-44-105.36-47-157-47S52.5,424.5,50.5,452.5Z" transform="translate(-10.68 -15.13)" style="fill:none;stroke:#f15a24;stroke-miterlimit:10;stroke-width:2px"/><path d="M313.5,523.5l128,48s27,9,29-6" transform="translate(-10.68 -15.13)" style="fill:none;stroke:#f15a24;stroke-miterlimit:10;stroke-width:2px"/><path d="M290.5,518.5s-213,50-279-45" transform="translate(-10.68 -15.13)" style="fill:none;stroke:#f15a24;stroke-miterlimit:10;stroke-width:2px"/><path d="M98.5,277.5c-14,33-11,162-11,162s52-122,110-81c0,0,51,46,73,105,0,0-24-169-24-173" transform="translate(-10.68 -15.13)" style="fill:#bbdff7;stroke:#f15a24;stroke-miterlimit:10;stroke-width:2px"/><path d="M244.5,294.5c14-117-46-165-46-165l-52,1s-39,59-48,136" transform="translate(-10.68 -15.13)" style="fill:#fff;stroke:#f15a24;stroke-linecap:round;stroke-miterlimit:10;stroke-width:3px"/><path d="M125.5,160.5s-44,25-22,141" transform="translate(-10.68 -15.13)" style="fill:none;stroke:#f15a24;stroke-linecap:round;stroke-miterlimit:10;stroke-width:2px"/><path d="M115.5,301.5s-1,4-9,13" transform="translate(-10.68 -15.13)" style="fill:none;stroke:#f15a24;stroke-linecap:round;stroke-miterlimit:10;stroke-width:2px"/><path d="M207.5,139.5S194,165,186,164l-7-12-11,12s-22.5-20.5-23.5-25.5" transform="translate(-10.68 -15.13)" style="fill:#bbdff7;stroke:#f15a24;stroke-miterlimit:10;stroke-width:2px"/><line x1="94.82" y1="306.37" x2="94.82" y2="317.37" style="fill:none;stroke:#f15a24;stroke-linecap:round;stroke-miterlimit:10;stroke-width:2px"/><line x1="100.82" y1="301.37" x2="104.82" y2="306.37" style="fill:none;stroke:#f15a24;stroke-linecap:round;stroke-miterlimit:10;stroke-width:2px"/><line x1="89.82" y1="306.37" x2="84.82" y2="309.37" style="fill:none;stroke:#f15a24;stroke-linecap:round;stroke-miterlimit:10;stroke-width:2px"/><path d="M105.5,277.5s44,24,136,19" transform="translate(-10.68 -15.13)" style="fill:none;stroke:#f15a24;stroke-linecap:round;stroke-miterlimit:10;stroke-width:4px"/><path d="M180.5,152.5s30-15,24-59c0,0-13.48-88.84-53.5-75.5-36,12-10,101-10,101S155,153,180.5,152.5Z" transform="translate(-10.68 -15.13)" style="fill:#fff;stroke:#f15a24;stroke-miterlimit:10;stroke-width:3px"/><path d="M177.5,107.5s-17-11-22,5" transform="translate(-10.68 -15.13)" style="fill:none;stroke:#f15a24;stroke-linecap:round;stroke-miterlimit:10;stroke-width:2px"/><line x1="129.82" y1="149.37" x2="129.82" y2="163.37" style="fill:#bbdff7;stroke:#bbdff7;stroke-linecap:round;stroke-miterlimit:10;stroke-width:3px;opacity:0.58"/><line x1="139.82" y1="149.37" x2="139.82" y2="163.37" style="fill:#bbdff7;stroke:#bbdff7;stroke-linecap:round;stroke-miterlimit:10;stroke-width:3px;opacity:0.58"/><line x1="151.82" y1="149.37" x2="151.82" y2="163.37" style="fill:#bbdff7;stroke:#bbdff7;stroke-linecap:round;stroke-miterlimit:10;stroke-width:3px;opacity:0.58"/><line x1="163.82" y1="149.37" x2="163.82" y2="163.37" style="fill:#bbdff7;stroke:#bbdff7;stroke-linecap:round;stroke-miterlimit:10;stroke-width:3px;opacity:0.58"/><line x1="175.82" y1="149.37" x2="175.82" y2="163.37" style="fill:#bbdff7;stroke:#bbdff7;stroke-linecap:round;stroke-miterlimit:10;stroke-width:3px;opacity:0.58"/><line x1="187.82" y1="149.37" x2="187.82" y2="163.37" style="fill:#bbdff7;stroke:#bbdff7;stroke-linecap:round;stroke-miterlimit:10;stroke-width:3px;opacity:0.58"/><line x1="199.82" y1="149.37" x2="199.82" y2="163.37" style="fill:#bbdff7;stroke:#bbdff7;stroke-linecap:round;stroke-miterlimit:10;stroke-width:3px;opacity:0.58"/><line x1="208.82" y1="149.37" x2="208.82" y2="163.37" style="fill:#bbdff7;stroke:#bbdff7;stroke-linecap:round;stroke-miterlimit:10;stroke-width:3px;opacity:0.58"/><line x1="129.82" y1="172.37" x2="129.82" y2="186.37" style="fill:#bbdff7;stroke:#bbdff7;stroke-linecap:round;stroke-miterlimit:10;stroke-width:3px;opacity:0.58"/><line x1="139.82" y1="172.37" x2="139.82" y2="186.37" style="fill:#bbdff7;stroke:#bbdff7;stroke-linecap:round;stroke-miterlimit:10;stroke-width:3px;opacity:0.58"/><line x1="151.82" y1="172.37" x2="151.82" y2="186.37" style="fill:#bbdff7;stroke:#bbdff7;stroke-linecap:round;stroke-miterlimit:10;stroke-width:3px;opacity:0.58"/><line x1="163.82" y1="172.37" x2="163.82" y2="186.37" style="fill:#bbdff7;stroke:#bbdff7;stroke-linecap:round;stroke-miterlimit:10;stroke-width:3px;opacity:0.58"/><line x1="175.82" y1="172.37" x2="175.82" y2="186.37" style="fill:#bbdff7;stroke:#bbdff7;stroke-linecap:round;stroke-miterlimit:10;stroke-width:3px;opacity:0.58"/><line x1="187.82" y1="172.37" x2="187.82" y2="186.37" style="fill:#bbdff7;stroke:#bbdff7;stroke-linecap:round;stroke-miterlimit:10;stroke-width:3px;opacity:0.58"/><line x1="199.82" y1="172.37" x2="199.82" y2="186.37" style="fill:#bbdff7;stroke:#bbdff7;stroke-linecap:round;stroke-miterlimit:10;stroke-width:3px;opacity:0.58"/><line x1="211.82" y1="172.37" x2="211.82" y2="186.37" style="fill:#bbdff7;stroke:#bbdff7;stroke-linecap:round;stroke-miterlimit:10;stroke-width:3px;opacity:0.58"/><line x1="124.82" y1="191.37" x2="124.82" y2="205.37" style="fill:#bbdff7;stroke:#bbdff7;stroke-linecap:round;stroke-miterlimit:10;stroke-width:3px;opacity:0.58"/><line x1="134.82" y1="191.37" x2="134.82" y2="205.37" style="fill:#bbdff7;stroke:#bbdff7;stroke-linecap:round;stroke-miterlimit:10;stroke-width:3px;opacity:0.58"/><line x1="146.82" y1="191.37" x2="146.82" y2="205.37" style="fill:#bbdff7;stroke:#bbdff7;stroke-linecap:round;stroke-miterlimit:10;stroke-width:3px;opacity:0.58"/><line x1="158.82" y1="191.37" x2="158.82" y2="205.37" style="fill:#bbdff7;stroke:#bbdff7;stroke-linecap:round;stroke-miterlimit:10;stroke-width:3px;opacity:0.58"/><line x1="170.82" y1="191.37" x2="170.82" y2="205.37" style="fill:#bbdff7;stroke:#bbdff7;stroke-linecap:round;stroke-miterlimit:10;stroke-width:3px;opacity:0.58"/><line x1="182.82" y1="191.37" x2="182.82" y2="205.37" style="fill:#bbdff7;stroke:#bbdff7;stroke-linecap:round;stroke-miterlimit:10;stroke-width:3px;opacity:0.58"/><line x1="194.82" y1="191.37" x2="194.82" y2="205.37" style="fill:#bbdff7;stroke:#bbdff7;stroke-linecap:round;stroke-miterlimit:10;stroke-width:3px;opacity:0.58"/><line x1="206.82" y1="191.37" x2="206.82" y2="205.37" style="fill:#bbdff7;stroke:#bbdff7;stroke-linecap:round;stroke-miterlimit:10;stroke-width:3px;opacity:0.58"/><path d="M215,249s-1,5-25,0" transform="translate(-10.68 -15.13)" style="fill:none;stroke:#f15a24;stroke-linecap:round;stroke-miterlimit:10;stroke-width:2px;opacity:0.58"/><line x1="130.32" y1="210.87" x2="130.32" y2="224.87" style="fill:#bbdff7;stroke:#bbdff7;stroke-linecap:round;stroke-miterlimit:10;stroke-width:3px;opacity:0.58"/><line x1="140.32" y1="210.87" x2="140.32" y2="224.87" style="fill:#bbdff7;stroke:#bbdff7;stroke-linecap:round;stroke-miterlimit:10;stroke-width:3px;opacity:0.58"/><line x1="152.32" y1="210.87" x2="152.32" y2="224.87" style="fill:#bbdff7;stroke:#bbdff7;stroke-linecap:round;stroke-miterlimit:10;stroke-width:3px;opacity:0.58"/><line x1="164.32" y1="210.87" x2="164.32" y2="224.87" style="fill:#bbdff7;stroke:#bbdff7;stroke-linecap:round;stroke-miterlimit:10;stroke-width:3px;opacity:0.58"/><line x1="176.32" y1="210.87" x2="176.32" y2="224.87" style="fill:#bbdff7;stroke:#bbdff7;stroke-linecap:round;stroke-miterlimit:10;stroke-width:3px;opacity:0.58"/><line x1="188.32" y1="210.87" x2="188.32" y2="224.87" style="fill:#bbdff7;stroke:#bbdff7;stroke-linecap:round;stroke-miterlimit:10;stroke-width:3px;opacity:0.58"/><line x1="200.32" y1="210.87" x2="200.32" y2="224.87" style="fill:#bbdff7;stroke:#bbdff7;stroke-linecap:round;stroke-miterlimit:10;stroke-width:3px;opacity:0.58"/><line x1="212.32" y1="210.87" x2="212.32" y2="224.87" style="fill:#bbdff7;stroke:#bbdff7;stroke-linecap:round;stroke-miterlimit:10;stroke-width:3px;opacity:0.58"/><line x1="130.32" y1="233.87" x2="130.32" y2="247.87" style="fill:#bbdff7;stroke:#bbdff7;stroke-linecap:round;stroke-miterlimit:10;stroke-width:3px;opacity:0.58"/><line x1="140.32" y1="233.87" x2="140.32" y2="247.87" style="fill:#bbdff7;stroke:#bbdff7;stroke-linecap:round;stroke-miterlimit:10;stroke-width:3px;opacity:0.58"/><line x1="152.32" y1="233.87" x2="152.32" y2="247.87" style="fill:#bbdff7;stroke:#bbdff7;stroke-linecap:round;stroke-miterlimit:10;stroke-width:3px;opacity:0.58"/><line x1="164.32" y1="233.87" x2="164.32" y2="247.87" style="fill:#bbdff7;stroke:#bbdff7;stroke-linecap:round;stroke-miterlimit:10;stroke-width:3px;opacity:0.58"/><line x1="176.32" y1="233.87" x2="176.32" y2="247.87" style="fill:#bbdff7;stroke:#bbdff7;stroke-linecap:round;stroke-miterlimit:10;stroke-width:3px;opacity:0.58"/><line x1="188.32" y1="233.87" x2="188.32" y2="247.87" style="fill:#bbdff7;stroke:#bbdff7;stroke-linecap:round;stroke-miterlimit:10;stroke-width:3px;opacity:0.58"/><line x1="200.32" y1="233.87" x2="200.32" y2="247.87" style="fill:#bbdff7;stroke:#bbdff7;stroke-linecap:round;stroke-miterlimit:10;stroke-width:3px;opacity:0.58"/><line x1="212.32" y1="233.87" x2="212.32" y2="247.87" style="fill:#bbdff7;stroke:#bbdff7;stroke-linecap:round;stroke-miterlimit:10;stroke-width:3px;opacity:0.58"/><line x1="135.32" y1="252.87" x2="135.32" y2="266.87" style="fill:#bbdff7;stroke:#bbdff7;stroke-linecap:round;stroke-miterlimit:10;stroke-width:3px;opacity:0.58"/><line x1="116.32" y1="210.87" x2="116.32" y2="224.87" style="fill:#bbdff7;stroke:#bbdff7;stroke-linecap:round;stroke-miterlimit:10;stroke-width:3px;opacity:0.58"/><line x1="116.32" y1="190.87" x2="116.32" y2="204.87" style="fill:#bbdff7;stroke:#bbdff7;stroke-linecap:round;stroke-miterlimit:10;stroke-width:3px;opacity:0.58"/><line x1="116.32" y1="167.87" x2="116.32" y2="181.87" style="fill:#bbdff7;stroke:#bbdff7;stroke-linecap:round;stroke-miterlimit:10;stroke-width:3px;opacity:0.58"/><line x1="116.32" y1="233.87" x2="116.32" y2="247.87" style="fill:#bbdff7;stroke:#bbdff7;stroke-linecap:round;stroke-miterlimit:10;stroke-width:3px;opacity:0.58"/><line x1="121.32" y1="252.87" x2="121.32" y2="266.87" style="fill:#bbdff7;stroke:#bbdff7;stroke-linecap:round;stroke-miterlimit:10;stroke-width:3px;opacity:0.58"/><line x1="102.32" y1="210.87" x2="102.32" y2="224.87" style="fill:#bbdff7;stroke:#bbdff7;stroke-linecap:round;stroke-miterlimit:10;stroke-width:3px;opacity:0.58"/><line x1="102.32" y1="233.87" x2="102.32" y2="247.87" style="fill:#bbdff7;stroke:#bbdff7;stroke-linecap:round;stroke-miterlimit:10;stroke-width:3px;opacity:0.58"/><line x1="108.32" y1="182.87" x2="108.32" y2="196.87" style="fill:#bbdff7;stroke:#bbdff7;stroke-linecap:round;stroke-miterlimit:10;stroke-width:3px;opacity:0.58"/><line x1="147.32" y1="252.87" x2="147.32" y2="266.87" style="fill:#bbdff7;stroke:#bbdff7;stroke-linecap:round;stroke-miterlimit:10;stroke-width:3px;opacity:0.58"/><line x1="159.32" y1="252.87" x2="159.32" y2="266.87" style="fill:#bbdff7;stroke:#bbdff7;stroke-linecap:round;stroke-miterlimit:10;stroke-width:3px;opacity:0.58"/><line x1="171.32" y1="252.87" x2="171.32" y2="266.87" style="fill:#bbdff7;stroke:#bbdff7;stroke-linecap:round;stroke-miterlimit:10;stroke-width:3px;opacity:0.58"/><line x1="183.32" y1="252.87" x2="183.32" y2="266.87" style="fill:#bbdff7;stroke:#bbdff7;stroke-linecap:round;stroke-miterlimit:10;stroke-width:3px;opacity:0.58"/><line x1="195.32" y1="252.87" x2="195.32" y2="266.87" style="fill:#bbdff7;stroke:#bbdff7;stroke-linecap:round;stroke-miterlimit:10;stroke-width:3px;opacity:0.58"/><line x1="207.32" y1="252.87" x2="207.32" y2="266.87" style="fill:#bbdff7;stroke:#bbdff7;stroke-linecap:round;stroke-miterlimit:10;stroke-width:3px;opacity:0.58"/><line x1="224.32" y1="210.87" x2="224.32" y2="224.87" style="fill:#bbdff7;stroke:#bbdff7;stroke-linecap:round;stroke-miterlimit:10;stroke-width:3px;opacity:0.58"/><line x1="224.32" y1="233.87" x2="224.32" y2="247.87" style="fill:#bbdff7;stroke:#bbdff7;stroke-linecap:round;stroke-miterlimit:10;stroke-width:3px;opacity:0.58"/><line x1="219.32" y1="252.87" x2="219.32" y2="266.87" style="fill:#bbdff7;stroke:#bbdff7;stroke-linecap:round;stroke-miterlimit:10;stroke-width:3px;opacity:0.58"/><rect x="181.53" y="171.54" width="231.8" height="127.99" rx="12" transform="translate(-85.08 145.02) rotate(-26.92)" style="fill:#bbdff7;stroke:#f15a24;stroke-miterlimit:10;stroke-width:2px"/><path d="M214.5,187.5s-1,5-25,0" transform="translate(-10.68 -15.13)" style="fill:none;stroke:#f15a24;stroke-linecap:round;stroke-miterlimit:10;stroke-width:2px;opacity:0.58"/><path d="M292.7,229.16l-6.37,3.27L265,219.31a30.34,30.34,0,0,1-2.7-1.79l-.08,0c.66,1,1.55,2.62,2.68,4.82L273.47,239l-6,3.05L252,211.79l6.79-3.49L279.33,221c.93.57,1.82,1.16,2.67,1.75l.08,0a38,38,0,0,1-2.29-4.08l-8.61-16.76,5.95-3.06Z" transform="translate(-10.68 -15.13)" style="fill:#fff"/><path d="M308.29,221.82q-5,2.56-9.41,1t-7.09-6.76q-2.76-5.37-1.35-9.93A12,12,0,0,1,296.9,199q5-2.56,9.37-1a12.69,12.69,0,0,1,7,6.57q2.76,5.38,1.45,10T308.29,221.82Zm-8.88-17.67a4.49,4.49,0,0,0-2.56,3.38,8.53,8.53,0,0,0,1.16,5.22q3.19,6.24,7.85,3.85,4.42-2.26,1.14-8.68Q303.88,201.86,299.41,204.15Z" transform="translate(-10.68 -15.13)" style="fill:#fff"/><path d="M279.2,301.75,272,305.47l-8.36-5.57c-.63-.42-1.22-.79-1.75-1.1a10.46,10.46,0,0,0-1.53-.73,4.26,4.26,0,0,0-1.34-.27,2.64,2.64,0,0,0-1.22.29l-1.7.88,6,11.6-6.3,3.24L240.15,283.5l10-5.13q10.19-5.24,14.42,3a10.11,10.11,0,0,1,1.06,3.15,9.35,9.35,0,0,1,0,3.08,9.58,9.58,0,0,1-1,2.87,11.26,11.26,0,0,1-2,2.56l0,.08a4.44,4.44,0,0,1,1.57.07,10,10,0,0,1,1.7.52c.58.24,1.16.52,1.74.83s1.13.64,1.64,1Zm-30.12-16.37,4.33,8.43,2.73-1.4a4.85,4.85,0,0,0,2.61-3,5,5,0,0,0-.39-3.83q-2-4-6.43-1.72Z" transform="translate(-10.68 -15.13)" style="fill:#fff"/><path d="M293.58,283.08l-13,6.7q2.73,4.55,7.9,1.9a11.39,11.39,0,0,0,4.93-4.67l2.48,4.82a16.09,16.09,0,0,1-6.38,5.3q-4.85,2.49-9,1c-2.78-1-5.05-3.27-6.84-6.74s-2.34-6.93-1.49-10a10.4,10.4,0,0,1,5.48-6.8,9.45,9.45,0,0,1,8.21-.66q3.84,1.58,6.31,6.4Zm-7.82-1.16q-2.38-4.65-5.86-2.87A3.66,3.66,0,0,0,278,281.7a7.2,7.2,0,0,0,.39,4Z" transform="translate(-10.68 -15.13)" style="fill:#fff"/><path d="M300.23,290.22l-2.78-5.41a14.48,14.48,0,0,0,3.8-.08,10.52,10.52,0,0,0,3.11-1,6.48,6.48,0,0,0,2.34-1.81,1.78,1.78,0,0,0,.18-2,1.59,1.59,0,0,0-1-.83,4.55,4.55,0,0,0-1.48-.18,14.44,14.44,0,0,0-1.77.19,16.77,16.77,0,0,1-1.84.22,14.58,14.58,0,0,1-2.63,0,6.89,6.89,0,0,1-2.19-.51,6.22,6.22,0,0,1-1.82-1.23,8.3,8.3,0,0,1-1.5-2.14,7.13,7.13,0,0,1-.88-3.51,7,7,0,0,1,.85-3.14,9.65,9.65,0,0,1,2.16-2.66,15.3,15.3,0,0,1,3.07-2.07,18.45,18.45,0,0,1,2.81-1.17,22.18,22.18,0,0,1,3-.74l2.65,5.16a10.63,10.63,0,0,0-3.08.18,11.12,11.12,0,0,0-2.81,1,6.47,6.47,0,0,0-1.08.7,4,4,0,0,0-.78.83,2.09,2.09,0,0,0-.35.9,1.54,1.54,0,0,0,.18.91,1.73,1.73,0,0,0,.87.84,3.49,3.49,0,0,0,1.29.25,10.39,10.39,0,0,0,1.54-.09l1.63-.21a17.58,17.58,0,0,1,2.75-.13,7.85,7.85,0,0,1,2.37.41,5.7,5.7,0,0,1,2,1.17,7.37,7.37,0,0,1,1.6,2.17,7.46,7.46,0,0,1,.92,3.69,7.29,7.29,0,0,1-.91,3.27,9.94,9.94,0,0,1-2.31,2.76,17.61,17.61,0,0,1-3.26,2.17A18.73,18.73,0,0,1,300.23,290.22Z" transform="translate(-10.68 -15.13)" style="fill:#fff"/><path d="M338.41,271.33l-6.15,3.16-1.69-3.3-.1.05q-.32,5-4.14,7-7,3.57-11.63-5.54L308,259.6l6.15-3.16,6.4,12.47q2.35,4.59,5.72,2.86a3.59,3.59,0,0,0,2-2.62,6,6,0,0,0-.75-3.92l-6.37-12.39,6.15-3.15Z" transform="translate(-10.68 -15.13)" style="fill:#fff"/><path d="M349.77,265.49l-6.17,3.17-16.46-32,6.17-3.17Z" transform="translate(-10.68 -15.13)" style="fill:#fff"/><path d="M366.91,256.37a9.48,9.48,0,0,1-3.72,2.89q-6.51,3.36-10.28-4l-5.09-9.91L344.58,247l-2.53-4.92,3.24-1.67-2.4-4.67,5.17-5.06,3.37,6.57,4.49-2.3,2.53,4.92L354,242.21l4.5,8.75c1.16,2.25,2.56,3,4.21,2.11a4.52,4.52,0,0,0,1.7-1.65Z" transform="translate(-10.68 -15.13)" style="fill:#fff"/><path d="M368.91,254.94l-2.78-5.41a14.48,14.48,0,0,0,3.8-.08,10.52,10.52,0,0,0,3.11-1,6.35,6.35,0,0,0,2.33-1.81,1.77,1.77,0,0,0,.19-2,1.59,1.59,0,0,0-1-.83,4.3,4.3,0,0,0-1.48-.18,14.44,14.44,0,0,0-1.77.19,16.77,16.77,0,0,1-1.84.22,14.58,14.58,0,0,1-2.63,0,6.89,6.89,0,0,1-2.19-.51,6.07,6.07,0,0,1-1.82-1.24,8,8,0,0,1-1.5-2.13,6.83,6.83,0,0,1,0-6.66,9.8,9.8,0,0,1,2.16-2.66,16.19,16.19,0,0,1,3.07-2.07,19.49,19.49,0,0,1,2.81-1.16,22.18,22.18,0,0,1,3-.74L375,232.1a10.63,10.63,0,0,0-3.08.18,11.12,11.12,0,0,0-2.81,1,6.09,6.09,0,0,0-1.08.7,4,4,0,0,0-.78.83,2,2,0,0,0-.35.9,1.56,1.56,0,0,0,.18.91,1.71,1.71,0,0,0,.87.83,3.3,3.3,0,0,0,1.29.26,10.39,10.39,0,0,0,1.54-.09l1.63-.22a18.82,18.82,0,0,1,2.75-.12,7.85,7.85,0,0,1,2.37.41,5.7,5.7,0,0,1,2,1.17,7.37,7.37,0,0,1,1.6,2.17,7.45,7.45,0,0,1,.92,3.68,7.29,7.29,0,0,1-.91,3.28,9.94,9.94,0,0,1-2.31,2.76,17.61,17.61,0,0,1-3.26,2.17A18.73,18.73,0,0,1,368.91,254.94Z" transform="translate(-10.68 -15.13)" style="fill:#fff"/><path d="M221.5,152.5s58,63,60,106" transform="translate(-10.68 -15.13)" style="fill:none;stroke:#f15a24;stroke-linecap:round;stroke-miterlimit:10;stroke-width:2px"/><path d="M288.5,260.5s-1,4-9,13" transform="translate(-10.68 -15.13)" style="fill:none;stroke:#f15a24;stroke-linecap:round;stroke-miterlimit:10;stroke-width:2px"/><line x1="267.82" y1="265.37" x2="267.82" y2="276.37" style="fill:none;stroke:#f15a24;stroke-linecap:round;stroke-miterlimit:10;stroke-width:2px"/><line x1="273.82" y1="260.37" x2="277.82" y2="265.37" style="fill:none;stroke:#f15a24;stroke-linecap:round;stroke-miterlimit:10;stroke-width:2px"/><line x1="262.82" y1="265.37" x2="257.82" y2="268.37" style="fill:none;stroke:#f15a24;stroke-linecap:round;stroke-miterlimit:10;stroke-width:2px"/></svg>